<svg preserveAspectRatio="none" width="100%" height="100%" overflow="visible" style="display: block;" viewBox="0 0 24 24" fill="none" xmlns="http://www.w3.org/2000/svg">
<g id="AppStoreLogo">
<path id="Vector" d="M22.875 15C22.875 15.2984 22.7565 15.5845 22.5455 15.7955C22.3345 16.0065 22.0484 16.125 21.75 16.125H18.8128L20.4684 18.9272C20.5457 19.0544 20.5969 19.1957 20.6191 19.3429C20.6414 19.4901 20.6342 19.6402 20.598 19.7846C20.5618 19.929 20.4973 20.0648 20.4082 20.184C20.3191 20.3033 20.2073 20.4037 20.0791 20.4795C19.951 20.5552 19.8091 20.6048 19.6617 20.6253C19.5142 20.6457 19.3642 20.6368 19.2202 20.5989C19.0763 20.561 18.9413 20.4949 18.8231 20.4044C18.7049 20.3139 18.6058 20.2009 18.5316 20.0719L13.2094 11.0625C13.0661 10.8061 13.0287 10.5038 13.1053 10.2202C13.1819 9.93663 13.3664 9.69427 13.6194 9.5449C13.8723 9.39554 14.1736 9.35103 14.4589 9.42089C14.7442 9.49075 14.9909 9.66943 15.1462 9.91875L17.4825 13.875H21.75C22.0484 13.875 22.3345 13.9935 22.5455 14.2045C22.7565 14.4155 22.875 14.7016 22.875 15ZM12.4828 13.875H9.13031L15.2184 3.57281C15.2957 3.44557 15.3469 3.30426 15.3691 3.15707C15.3914 3.00989 15.3842 2.85975 15.348 2.71537C15.3118 2.57099 15.2473 2.43523 15.1582 2.31595C15.0691 2.19668 14.9573 2.09626 14.8291 2.02053C14.701 1.94479 14.5591 1.89524 14.4117 1.87475C14.2642 1.85425 14.1142 1.86322 13.9702 1.90113C13.8263 1.93905 13.6913 2.00515 13.5731 2.09561C13.4549 2.18607 13.3558 2.29909 13.2816 2.42812L12 4.59375L10.7184 2.42812C10.6442 2.29909 10.5451 2.18607 10.4269 2.09561C10.3087 2.00515 10.1737 1.93905 10.0298 1.90113C9.88582 1.86322 9.73579 1.85425 9.58835 1.87475C9.44091 1.89524 9.29901 1.94479 9.17086 2.02053C9.04271 2.09626 8.93087 2.19668 8.84181 2.31595C8.75275 2.43523 8.68824 2.57099 8.65203 2.71537C8.61582 2.85975 8.60863 3.00989 8.63086 3.15707C8.6531 3.30426 8.70432 3.44557 8.78156 3.57281L10.6931 6.80813L6.5175 13.875H2.25C1.95163 13.875 1.66548 13.9935 1.4545 14.2045C1.24353 14.4155 1.125 14.7016 1.125 15C1.125 15.2984 1.24353 15.5845 1.4545 15.7955C1.66548 16.0065 1.95163 16.125 2.25 16.125H12.4828C12.7812 16.125 13.0673 16.0065 13.2783 15.7955C13.4893 15.5845 13.6078 15.2984 13.6078 15C13.6078 14.7016 13.4893 14.4155 13.2783 14.2045C13.0673 13.9935 12.7812 13.875 12.4828 13.875ZM5.51531 17.7816C5.25856 17.6299 4.9521 17.5864 4.66327 17.6606C4.37444 17.7347 4.12689 17.9206 3.975 18.1772L3.53156 18.9272C3.45432 19.0544 3.4031 19.1957 3.38086 19.3429C3.35863 19.4901 3.36582 19.6402 3.40203 19.7846C3.43824 19.929 3.50275 20.0648 3.59181 20.184C3.68087 20.3033 3.79271 20.4037 3.92086 20.4795C4.04901 20.5552 4.19091 20.6048 4.33835 20.6253C4.48578 20.6457 4.63582 20.6368 4.77977 20.5989C4.92372 20.561 5.05871 20.4949 5.17692 20.4044C5.29513 20.3139 5.39422 20.2009 5.46844 20.0719L5.91188 19.3219C6.06346 19.065 6.10684 18.7585 6.03248 18.4696C5.95811 18.1808 5.77209 17.9333 5.51531 17.7816Z" fill="var(--fill-0, #C5C9CE)"/>
</g>
</svg>
