<svg width="12" height="12" viewBox="0 0 12 12" fill="none" xmlns="http://www.w3.org/2000/svg">
<g clip-path="url(#clip0_1158_4671)">
<path d="M9.576 0H2.424C1.0845 0 0 1.0845 0 2.424V9.5775C0 10.9155 1.0845 12 2.424 12H9.5775C10.9155 12 12.0015 10.9155 12.0015 9.576V2.424C12 1.0845 10.9155 0 9.576 0Z" fill="url(#paint0_linear_1158_4671)"/>
<path d="M5.949 2.75692L6.192 2.33692C6.342 2.07442 6.6765 1.98592 6.939 2.13592C7.2015 2.28592 7.29 2.62042 7.14 2.88292L4.7985 6.93593H6.492C7.041 6.93593 7.3485 7.58093 7.11 8.02793H2.145C1.842 8.02793 1.599 7.78493 1.599 7.48193C1.599 7.17893 1.842 6.93593 2.145 6.93593H3.537L5.319 3.84742L4.7625 2.88142C4.6125 2.61892 4.701 2.28742 4.9635 2.13442C5.226 1.98442 5.5575 2.07292 5.7105 2.33542L5.949 2.75692ZM3.843 8.59043L3.318 9.50093C3.168 9.76343 2.8335 9.85193 2.571 9.70193C2.3085 9.55193 2.22 9.21743 2.37 8.95493L2.76 8.27993C3.201 8.14343 3.5595 8.24843 3.843 8.59043ZM8.364 6.93893H9.7845C10.0875 6.93893 10.3305 7.18193 10.3305 7.48493C10.3305 7.78793 10.0875 8.03093 9.7845 8.03093H8.9955L9.528 8.95493C9.678 9.21743 9.5895 9.54893 9.327 9.70193C9.0645 9.85193 8.733 9.76343 8.58 9.50093C7.683 7.94543 7.0095 6.78143 6.5625 6.00593C6.105 5.21693 6.432 4.42492 6.7545 4.15642C7.113 4.77143 7.6485 5.69993 8.364 6.93893Z" fill="white"/>
</g>
<defs>
<linearGradient id="paint0_linear_1158_4671" x1="6.00075" y1="0" x2="6.00075" y2="12" gradientUnits="userSpaceOnUse">
<stop stop-color="#18BFFB"/>
<stop offset="1" stop-color="#2072F3"/>
</linearGradient>
<clipPath id="clip0_1158_4671">
<rect width="12" height="12" fill="white"/>
</clipPath>
</defs>
</svg>
