<svg width="61" height="67" viewBox="0 0 61 67" fill="none" xmlns="http://www.w3.org/2000/svg">
<g clip-path="url(#clip0_254_17266)">
<path d="M28.5047 32.0832L0.251953 61.6047C0.569194 62.7261 1.13932 63.7603 1.91875 64.6283C2.69818 65.4963 3.66628 66.175 4.74904 66.6126C5.83179 67.0503 7.00054 67.2352 8.16594 67.1533C9.33134 67.0714 10.4625 66.7248 11.473 66.14L43.2626 48.0827L28.5047 32.0832Z" fill="#EA4335"/>
<path d="M57.0747 27.0649L43.3273 19.2121L27.8535 32.7551L43.3904 48.0407L57.0326 40.2719C58.2412 39.6408 59.2535 38.6918 59.9599 37.5277C60.6662 36.3637 61.0396 35.029 61.0396 33.6684C61.0396 32.3078 60.6662 30.9731 59.9599 29.8091C59.2535 28.645 58.2412 27.696 57.0326 27.0649H57.0747Z" fill="#FBBC04"/>
<path d="M0.252716 5.58514C0.0819336 6.21482 -0.00304095 6.86456 8.30987e-05 7.51685V59.673C0.00179127 60.325 0.086684 60.9741 0.252716 61.6047L29.4739 32.839L0.252716 5.58514Z" fill="#4285F4"/>
<path d="M28.7152 33.5949L43.3258 19.2121L11.5783 1.07085C10.384 0.373213 9.02556 0.00372452 7.64145 1.50172e-05C5.96983 -0.00328885 4.34297 0.538642 3.00886 1.5432C1.67476 2.54775 0.706596 3.95983 0.251953 5.56418L28.7152 33.5949Z" fill="#34A853"/>
</g>
<defs>
<clipPath id="clip0_254_17266">
<rect width="61" height="67" fill="white"/>
</clipPath>
</defs>
</svg>
