<svg xmlns="http://www.w3.org/2000/svg" height="512" preserveAspectRatio="none" style="display: block;" version="1.1" viewBox="0 0 2048 2048" width="512">
<path d="M 783.996 655.255 C 791.343 599.768 770.524 508.779 846.414 501.932 C 865.166 499.865 895.772 503.282 915.266 504.238 L 1521.46 531.728 C 1592.36 535.407 1676.3 516.996 1677.11 613.962 L 1677.12 1107.81 C 1677.2 1228.58 1665.53 1236.2 1555.56 1236.21 L 1462.58 1236.16 L 1462.66 1284.71 C 1462.73 1377.5 1436.73 1386.24 1349.69 1386.21 L 1262.89 1386.18 L 1263.01 1444.45 C 1263.1 1494.33 1259.2 1528.78 1201.23 1542.96 C 1182.11 1542.22 1157.95 1542.95 1138.26 1542.95 L 503.438 1543.01 C 436.286 1543.02 372.419 1548.21 372.348 1460.35 L 372.298 937.591 C 372.307 834.761 373.911 816.828 481.265 816.84 L 583.254 816.914 L 583.099 744.275 C 582.959 656.241 622.238 655.205 698.974 655.226 L 783.996 655.255 z M 846.414 545.644 C 821.167 551.317 827.713 631.18 828.119 655.255 L 1167.31 655.294 C 1195.99 655.32 1223.63 657.315 1251.44 649.731 C 1273.39 657.423 1284.79 655.563 1307.75 655.38 L 1365.38 655.176 C 1462.46 655.098 1462.7 691.586 1462.63 781.939 L 1462.58 1193.39 L 1610.45 1193.39 C 1626.66 1188.05 1633.58 1178.7 1633.54 1161.49 L 1633.32 709.84 C 1633.32 671.381 1634.66 630.238 1631.56 592.211 C 1630.07 573.873 1571.49 577 1556.5 576.238 L 909.364 546.014 C 893.059 545.295 861.071 542.948 846.414 545.644 z M 653.947 698.077 C 618.745 701.303 625.281 726.095 625.314 753.744 L 625.402 816.914 L 917.311 817 C 977.934 817.143 971.531 806.861 1025.73 785.37 C 1068.78 803.585 1068.26 817.368 1117.2 817.065 L 1168.8 816.834 C 1262.64 816.51 1263.03 847.457 1262.94 934.745 L 1262.89 1343.21 L 1362.5 1343.21 C 1438.7 1344.41 1419.65 1312.49 1419.63 1244.2 L 1419.64 864.951 C 1419.64 818.409 1420.99 768.23 1417.93 721.66 C 1415.58 686.037 1346.52 698.169 1320.27 698.146 L 653.947 698.077 z M 438.338 858.915 C 419.027 862.254 414.658 871.193 414.47 889.723 L 414.194 1409.11 C 414.193 1445.38 401.366 1501.6 451.257 1500.15 L 1167.86 1500.14 C 1175.78 1500.17 1190.4 1500.76 1197.77 1500.05 C 1216.57 1493.12 1219.11 1484.48 1219.94 1465.73 C 1221.73 1425.54 1220.97 1385.18 1220.95 1344.92 L 1220.97 992.87 C 1220.97 971.783 1223.6 889.31 1218 873.775 C 1209.42 849.984 1122.11 858.926 1100 858.928 L 438.338 858.915 z" fill="currentColor" transform="translate(0,0)"></path>
<path d="M 796.258 986.398 L 796.258 952.951 L 839.94 952.951 C 840.313 964.085 840.069 975.256 839.94 986.398 C 897.122 991.254 933.307 1032.81 948.656 1085.85 C 933.647 1088.36 914.281 1089.86 898.549 1091.87 C 889.93 1063.56 869.587 1041.01 839.94 1034.98 C 839.543 1070.19 839.935 1106.17 839.94 1141.46 C 979.693 1165.13 990.688 1312.99 839.94 1343.21 L 839.94 1386.18 L 838.979 1387.6 C 830.78 1390.59 810.453 1387.89 801.744 1386.18 C 801.039 1382.53 801.715 1349.41 801.744 1343.21 C 742.631 1338.86 693.023 1305.04 681.553 1244.71 C 697.755 1242.44 715.644 1241.35 731.994 1240.67 C 747.122 1274.51 766.996 1286.56 801.744 1294.73 L 801.744 1183.88 C 779.409 1179.27 753.991 1168.99 735.265 1155.71 C 660.269 1102.49 704.675 1000.11 796.258 986.398 z M 796.258 1034.98 C 757.099 1048.87 729.517 1084.54 771.07 1117.04 C 782.424 1124.23 789.08 1126.98 801.744 1131.76 C 801.771 1117.49 803.195 1042.55 799.195 1035.2 L 796.258 1034.98 z M 839.94 1193.39 L 839.94 1294.73 C 856.216 1289.3 865.072 1286.54 878.334 1275.94 C 915.041 1238.3 881.095 1198.85 839.94 1193.39 z" fill="currentColor" transform="translate(0,0)"></path>
</svg>