<svg xmlns="http://www.w3.org/2000/svg" height="512" preserveAspectRatio="none" style="display: block;" version="1.1" viewBox="0 0 2048 2048" width="512">
<path d="M 1686.6 1018.91 C 1661.77 1018.35 1660.4 1002.74 1660.18 982.518 C 1656.45 652.493 1373.13 392.074 1049.79 382.631 C 1022.75 381.841 1013.74 344.446 1045.02 338.09 C 1061.33 335.802 1079.38 338.24 1095.69 339.828 C 1423.16 371.715 1699.74 644.428 1704.18 979.18 C 1704.42 997.306 1705.92 1010.7 1686.6 1018.91 z" fill="currentColor" transform="translate(0,0)"></path>
<path d="M 1489.09 1613.7 C 1388.03 1703.55 1262.97 1733.24 1134.45 1690.82 C 1015.92 1651.69 907.614 1596.5 809.153 1518.76 C 626.888 1374.84 373.444 1079.07 343.695 834.427 C 325.901 688.101 398.891 557.484 518.651 477.215 C 555.098 452.787 564.212 436.853 612.967 431.364 C 712.463 414.479 749.586 529.899 787.054 598.444 L 830.201 676.994 C 870.417 751.806 875.256 812.134 804.82 873.283 C 783.634 891.674 734.893 928.743 737.297 958.409 C 745.881 1064.33 981.737 1307.69 1085.88 1313.25 C 1115.47 1314.82 1171.52 1245.34 1194.72 1223.14 C 1260.66 1160.04 1322.25 1196.86 1382.68 1233.46 L 1519.62 1316.88 C 1568.07 1345.79 1611.6 1366.82 1607.44 1434.05 C 1603.73 1493.87 1531.51 1575.64 1489.09 1613.7 z M 612.967 476.56 C 613.705 483.535 648.042 542.646 653.954 553.312 L 740.188 709.378 C 749.178 725.699 777.2 759.119 762.186 777.584 C 734.11 815.618 705.764 741.08 695.082 722.033 L 602.588 555.314 C 591.575 535.782 581.005 515.901 569.371 496.745 C 553.746 507.365 540.182 520.287 525.301 531.389 C 245.563 740.084 456.381 1073.16 625.686 1275.99 C 750.585 1425.62 905.487 1554.75 1089.29 1624.55 C 1236.75 1680.54 1349.92 1686.53 1473.32 1564.48 C 1492.65 1544.93 1518.62 1516.16 1532.28 1491.92 C 1509.02 1476.98 1484.4 1462.51 1460.77 1447.93 L 1298.33 1347.5 C 1280.26 1336.55 1245.59 1322.25 1263.01 1295.88 C 1277.61 1273.78 1302.89 1296.75 1318.12 1305.31 L 1528.3 1435.75 C 1536.5 1440.82 1548.18 1448.5 1556.37 1452.82 C 1571.6 1393.31 1540.67 1383.34 1496.27 1356.3 L 1362.19 1273.97 C 1324.23 1250.79 1285.15 1219.38 1239.66 1246.54 C 1210.91 1263.7 1172.26 1316.76 1141.87 1340.73 C 1022 1428.96 792.234 1160.6 739.471 1075.15 C 715.893 1036.97 682.42 982.842 694.05 935.899 C 712.981 859.489 837.319 828.426 810.579 740.37 C 806.624 728.913 796.947 711.782 790.8 700.464 L 762.643 649.229 C 737.433 603.97 713.925 557.905 688.57 512.731 C 671.821 482.89 645.678 473.822 612.967 476.56 z" fill="currentColor" transform="translate(0,0)"></path>
<path d="M 1532.28 1018.91 C 1506.98 1013.5 1510.58 994.252 1509.75 973.005 C 1500.95 747.732 1306.17 552.194 1081.08 535.96 C 1068.79 535.074 1056.33 535.019 1044.14 533.294 C 1018.16 529.614 1014.2 490.293 1050.52 488.816 C 1277.85 480.994 1490.04 668.543 1541.43 885.154 C 1548.34 914.258 1575.46 1012.98 1532.28 1018.91 z" fill="currentColor" transform="translate(0,0)"></path>
<path d="M 1381.62 1018.91 C 1351.62 1017.18 1358.85 987.85 1356.17 965.924 C 1338.73 823.691 1228.51 710.179 1085.56 689.404 C 1065.76 686.526 1012.07 690.467 1032.34 649.93 C 1034.93 644.737 1045.19 642.765 1050.52 642.127 C 1205.09 630.289 1363.14 774.894 1394.39 922.945 C 1400.19 950.465 1418.15 1010.15 1381.62 1018.91 z" fill="currentColor" transform="translate(0,0)"></path>
<path d="M 1235.83 1018.91 C 1213.96 1019.63 1207.82 1011.57 1207.06 991.346 C 1204.01 922.384 1150.79 859.143 1083.65 843 C 1065.31 838.589 1018.28 843.796 1030.81 806.861 C 1033.19 799.865 1037.98 797.07 1045.02 795.159 C 1195.74 778.281 1294.86 995.131 1235.83 1018.91 z" fill="currentColor" transform="translate(0,0)"></path>
</svg>