<svg xmlns="http://www.w3.org/2000/svg" height="512" preserveAspectRatio="none" style="display: block;" version="1.1" viewBox="0 0 2048 2048" width="512">
<path d="M 929.7 1111.3 C 910.693 1110.2 892.032 1112.17 872.993 1113.42 L 526.251 1137.46 C 492.204 1139.73 457.904 1144.98 479.718 1097.39 C 577.136 884.881 679.791 674.698 779.161 463.134 L 859.934 291.439 C 873.636 262.22 886.667 206.324 918.122 204.587 L 1324.52 204.592 C 1403.15 204.565 1409.78 206.384 1365.78 275.579 C 1340.79 314.884 1311.29 356.334 1287.85 395.868 C 1283.84 402.63 1281.18 479.92 1280.51 492.685 L 1268.96 729.271 C 1267.96 748.95 1265.9 770.327 1266.83 789.899 C 1297.68 788.356 1330.8 784.929 1361.71 782.224 L 1471.4 773.538 C 1499.56 771.418 1527.89 768.708 1556.08 768.86 C 1574.32 768.959 1582.72 791.359 1571.7 804.372 C 1554.44 824.762 1536.98 844.856 1520.08 865.578 L 870.724 1667.6 C 828.645 1716.8 790.409 1769.61 747.862 1818.67 C 733.5 1835.24 715.103 1827.9 708.428 1810.16 C 704.928 1800.86 719.164 1763.98 722.528 1753.07 L 904.855 1181.32 C 910.643 1163.35 921.345 1126.8 929.7 1111.3 z M 929.7 250.105 C 917.347 279.448 902.127 309.575 888.529 338.674 L 606.087 935.383 C 581.676 988.046 557.327 1037.54 534.073 1090.82 C 563.127 1090.88 606.678 1086.28 637.337 1084.23 L 923.368 1062.83 C 949.556 1060.54 975.067 1051.36 984.561 1080.69 C 983.531 1091.83 974.095 1118.75 970.292 1130.47 L 788.039 1695.14 L 954.107 1490.62 C 974.108 1466.34 996.995 1434.95 1018.29 1412.44 C 1031.14 1394.12 1048.75 1373.3 1063.02 1355.7 L 1459.1 866.583 C 1470.87 851.918 1486.95 832.917 1497.02 817.567 C 1395.44 828.612 1288.32 835.764 1186.08 844.017 L 1049.79 855.004 C 1037.39 856.004 966 865.665 957.457 858.304 C 929.429 834.152 976.196 786.044 992.903 760.363 L 1327.83 250.105 C 1313.26 250.762 1296.87 250.158 1282.06 250.133 L 929.7 250.105 z M 1234.3 473.876 L 1095.36 687.89 C 1072.78 722.401 1036.67 773.311 1017.6 808.759 L 1018.29 810.165 C 1085.42 805.664 1153.22 801.261 1220.08 793.66 C 1220.92 760.709 1236.22 476.414 1234.3 473.876 z" fill="currentColor" transform="translate(0,0)"></path>
</svg>