<svg xmlns="http://www.w3.org/2000/svg" height="512" preserveAspectRatio="none" style="display: block;" version="1.1" viewBox="0 0 2048 2048" width="512">
<path d="M 906.057 432.268 C 919.562 379.244 957.579 346.543 1011.49 339.33 C 1074.86 330.755 1124.17 373.663 1141.31 432.268 C 1209.35 432.303 1252.74 419.275 1278.94 494.714 L 1377.5 494.681 C 1439.09 494.543 1478.3 490.413 1478.82 564.716 L 1478.92 1603 C 1478.91 1689.73 1463.51 1704.47 1380.92 1704.4 L 1038.25 1704.34 L 667.316 1704.4 C 616.44 1704.66 569.636 1707.64 569.535 1636.34 L 569.471 593.485 C 569.342 496.559 587.419 494.672 671.776 494.663 L 767.134 494.714 C 780.67 439.729 812.323 432.174 862.667 432.191 L 906.057 432.268 z M 1011.49 377.326 C 919.907 397.866 964.692 469.106 922.598 471.021 C 850.313 474.309 805.877 445.284 805.974 531.96 L 806.088 583.041 L 1038.25 583.041 L 1240.59 583.041 L 1240.68 533.534 C 1240.76 451.907 1204.93 470.399 1134.48 471.029 C 1101.35 471.325 1109.86 463.807 1102.61 435.884 C 1090.66 393.741 1054.07 373.853 1011.49 377.326 z M 627.177 533.111 C 605.499 537.766 608.253 553.553 608.339 571.54 L 608.528 1582.32 C 608.523 1607.84 597.543 1666.61 630.6 1666.71 L 1169.07 1666.75 C 1197.1 1666.74 1413.55 1668.86 1423.11 1665.27 C 1447.63 1656.06 1439.94 1618.13 1440.03 1598.5 L 1439.87 558.315 C 1439.58 522.253 1405.03 533.059 1373.78 533.078 L 1278.94 533.111 C 1279.08 565.589 1292.62 621.684 1252.54 621.432 L 1066.7 621.035 C 974.826 621.042 882.696 622.518 790.846 620.995 C 753.75 620.38 767.205 562.621 767.134 533.111 C 721.282 533.102 672.801 532.265 627.177 533.111 z" fill="currentColor" transform="translate(0,0)"></path>
<path d="M 1027.46 470.207 C 1016.62 472.142 1006.24 465.016 1004.14 454.206 C 1002.05 443.396 1009.02 432.905 1019.79 430.65 C 1026.91 429.16 1034.28 431.62 1039.07 437.085 C 1043.86 442.55 1045.34 450.174 1042.94 457.035 C 1040.53 463.896 1034.62 468.93 1027.46 470.207 z" fill="currentColor" transform="translate(0,0)"></path>
<path d="M 806.088 949.529 C 821.092 929.131 891.949 859.222 906.057 853.1 C 921.019 852.51 936.316 871.135 924.674 883.777 C 898.122 909.389 828.658 988.313 807.588 997.598 C 799.338 1001.23 772.952 971.206 763.53 961.878 C 755.747 954.284 738.883 939.263 740.626 930.298 C 749.691 883.69 791.017 935.467 806.088 949.529 z" fill="currentColor" transform="translate(0,0)"></path>
<path d="M 1291.97 900.38 L 1034.55 900.467 C 1007.34 900.26 1004.56 870.002 1025.8 862.662 C 1033.95 861.982 1048.54 862.625 1057.25 862.63 L 1282.64 862.761 C 1317.24 865.005 1311.8 894.123 1291.97 900.38 z" fill="currentColor" transform="translate(0,0)"></path>
<path d="M 1291.97 986.938 L 1118.51 986.941 C 1089.12 986.948 1059.79 987.222 1030.36 986.851 C 1007.92 989.062 1002.32 952.761 1032.27 949.529 C 1062.13 949.401 1287.05 947.062 1296.89 951.613 C 1314.98 959.986 1308.7 982.081 1291.97 986.938 z" fill="currentColor" transform="translate(0,0)"></path>
<path d="M 803.088 1189.33 C 822.947 1172.25 889.2 1097.28 906.057 1092.19 C 929.675 1093.25 937.286 1112.13 919.998 1129.08 L 816.424 1231.32 C 798.207 1249.56 772.563 1214.33 758.695 1200.22 C 749.819 1191.33 716.966 1163.08 754.977 1150.57 C 763.597 1147.73 793.666 1180.62 803.088 1189.33 z" fill="currentColor" transform="translate(0,0)"></path>
<path d="M 1291.97 1142.05 L 1121.45 1142.08 C 1107.7 1142.08 1027.99 1145.49 1020.63 1138.9 C 1005.27 1125.12 1010.08 1107.64 1029.54 1103.92 C 1034.36 1103.33 1051.35 1103.88 1057.1 1103.88 L 1225.78 1103.9 C 1246.12 1103.9 1278.13 1102.42 1296.8 1105.81 C 1308.02 1107.84 1314.67 1135.03 1291.97 1142.05 z" fill="currentColor" transform="translate(0,0)"></path>
<path d="M 1011.49 1206.95 C 1014.66 1196.82 1016.08 1193.78 1025.8 1189.33 C 1036.69 1188.75 1052.56 1189.27 1063.82 1189.28 L 1281.56 1189.62 C 1318.98 1193.86 1312.71 1223.05 1291.97 1227.53 C 1281.63 1228.2 1264.65 1227.56 1253.72 1227.56 L 1079.03 1227.53 C 1048.95 1227.55 1017.77 1238.39 1011.49 1206.95 z" fill="currentColor" transform="translate(0,0)"></path>
<path d="M 806.088 1423.71 C 820.432 1404.4 901.499 1324.88 910.098 1322.17 C 926.8 1322.12 939.531 1336.49 928.642 1351.46 C 906.499 1381.9 850.846 1432.6 823.16 1460.07 C 797.847 1485.18 777.005 1451.04 758.695 1429.9 C 751.47 1423.82 735.559 1410.13 736.444 1402.32 C 742.535 1348.61 790.019 1410.25 806.088 1423.71 z" fill="currentColor" transform="translate(0,0)"></path>
</svg>