<svg xmlns="http://www.w3.org/2000/svg" height="512" preserveAspectRatio="none" style="display: block;" version="1.1" viewBox="0 0 2048 2048" width="512">
<path d="M 275.934 459.361 C 265.579 468.106 237.257 500.922 228.823 501.802 C 147.834 510.253 280.527 392.276 293.516 389.233 C 311.374 389.526 366.95 453.107 382.718 468.625 C 396.925 480.427 385.608 503.783 369.119 503.055 C 353.786 502.377 328.659 473.457 317.947 463.002 L 317.947 1548.79 L 1760.62 1548.79 C 1747.59 1535.96 1723.88 1520.72 1720.35 1502.25 C 1717.7 1488.38 1739.19 1473.35 1749.92 1481.39 C 1773.43 1499.38 1794 1522.27 1815.24 1542.89 C 1839.04 1566.01 1840.74 1571.08 1817.07 1594.29 C 1797.84 1611.97 1779.2 1630.61 1759.96 1649.59 C 1743.59 1665.75 1683.18 1655.14 1760.62 1591.98 C 1746.5 1591.32 1727.68 1591.97 1713.24 1591.97 L 289.016 1591.98 C 269.873 1577.76 275.818 1548.99 275.856 1527.92 L 275.934 459.361 z" fill="currentColor" transform="translate(0,0)"></path>
<path d="M 1454.29 779.12 C 1432.73 759.382 1351.31 707.784 1401.01 682.222 C 1423.25 679.657 1467.41 687.255 1491.15 690.081 L 1663.7 710.708 C 1698.07 714.914 1721.82 716.297 1704.25 757.724 C 1694.31 781.161 1684.71 804.772 1675.49 828.513 L 1632.49 941.937 C 1617.81 980.18 1605.2 1029.87 1569.8 963.563 C 1563.17 951.161 1555.53 937.946 1548.38 925.363 C 1514.85 949.992 1478.48 982.157 1444.47 1008.33 C 1435.54 999.838 1423.17 987.131 1415.5 977.725 L 1497.46 912.909 C 1557.86 864.867 1552.95 850.379 1594.8 922.296 C 1616.47 867.196 1640.28 807.952 1659.98 752.174 C 1594.7 742.852 1522.33 738.135 1457.71 726.309 C 1519.89 786.781 1528.32 775.649 1461.54 827.781 L 1179.57 1046.53 C 1135.36 1080.29 1146.06 1082.87 1099.5 1049.54 L 885.461 905.573 C 857.607 886.749 828.835 868.128 801.584 848.613 C 787.631 860.265 764.913 885.17 751.126 899.22 L 656.288 996.181 C 640.163 1012.97 623.213 1032.74 604.916 1047.08 C 591.62 1057.5 566.663 1035.14 575.342 1021.78 C 586.853 1004.06 614.637 978.498 629.323 963.624 L 696.06 895.53 C 711.746 879.595 783.277 803.501 795.264 797.527 C 805.003 796.728 827.313 815.213 836.351 821.415 L 1138.72 1025.55 C 1147.45 1019.79 1167.8 1002.62 1177.15 995.275 L 1379.02 838.673 C 1403.45 819.67 1430.99 799.237 1454.29 779.12 z" fill="currentColor" transform="translate(0,0)"></path>
<path d="M 797.865 1032.23 C 783.066 1044.31 768.477 1058.14 753.715 1070.6 L 481.455 1304.79 C 469.068 1315.76 434.011 1355.75 418.298 1328.87 C 410.436 1315.42 414.949 1306.15 426.081 1296.65 L 608.483 1139.27 C 642.487 1109.8 759.97 998.966 794.76 982.912 C 804.299 983.324 838.364 1008.89 848.798 1015.91 L 919.442 1062.72 C 990.223 1110.16 1062.57 1157.98 1132.59 1206.48 C 1194.38 1160.55 1266.52 1088.72 1328.31 1049.54 C 1337.59 1057.89 1348.4 1071.19 1354.87 1081.85 C 1343.73 1091.78 1328.43 1103.39 1316.56 1113.04 L 1234.5 1179.11 C 1206.79 1201.14 1179.4 1223.94 1151.57 1245.82 C 1141.53 1253.71 1134.88 1257.43 1123.59 1250.28 C 1096.4 1233.07 1069.29 1215.14 1042.75 1197.01 L 949.126 1134.33 C 899.131 1102.2 846.143 1066.54 797.865 1032.23 z" fill="currentColor" transform="translate(0,0)"></path>
<path d="M 1344.53 1035.59 C 1359.34 1022.17 1383.91 1001.21 1401.01 991.969 C 1404.4 999.277 1420.55 1016.53 1427.07 1025.55 C 1409.61 1035.74 1389.72 1053.14 1373.7 1066.32 L 1372.28 1066.87 C 1369.28 1065.01 1348.35 1040.04 1344.53 1035.59 z" fill="currentColor" transform="translate(0,0)"></path>
<path d="M 441.6 1215.46 C 426.11 1217.04 407.937 1207.04 413.961 1188.71 C 417.192 1178.88 533.945 1055.07 553.003 1045 C 578.963 1044.62 588.573 1065.7 569.428 1084.52 C 544.66 1108.87 463.835 1201.21 441.6 1215.46 z" fill="currentColor" transform="translate(0,0)"></path>
<path d="M 1526.93 1413.16 L 1526.72 1124.47 C 1526.75 1112.26 1531.3 1106.87 1541.97 1102.14 C 1581 1099.43 1568.77 1168.35 1568.79 1197.08 L 1568.79 1392.02 C 1568.76 1464.64 1571.07 1455.04 1499.1 1455.05 L 441.6 1455.03 C 401.675 1454.2 408.313 1413.37 439.083 1413.26 L 1526.93 1413.16 z" fill="currentColor" transform="translate(0,0)"></path>
</svg>