<svg xmlns="http://www.w3.org/2000/svg" viewBox="0 0 1200 630" width="1200" height="630" role="img" aria-label="CloserCoach - The AI Sales Coach That Lives in Your Pocket">
	<defs>
		<!-- Foundation dark -->
		<linearGradient id="bg" x1="0" y1="0" x2="1" y2="1">
			<stop offset="0%" stop-color="#0D0F14"/>
			<stop offset="100%" stop-color="#1A1D26"/>
		</linearGradient>

		<!-- Emerald atmospheric glow (hero pattern) -->
		<radialGradient id="glow" cx="0.78" cy="0.52" r="0.55" fx="0.78" fy="0.52">
			<stop offset="0%" stop-color="rgba(16,185,129,0.35)"/>
			<stop offset="40%" stop-color="rgba(16,185,129,0.12)"/>
			<stop offset="100%" stop-color="rgba(16,185,129,0)"/>
		</radialGradient>

		<!-- Phone silhouette glow -->
		<radialGradient id="phoneGlow" cx="0.5" cy="0.5" r="0.5">
			<stop offset="0%" stop-color="rgba(16,185,129,0.40)"/>
			<stop offset="60%" stop-color="rgba(16,185,129,0.08)"/>
			<stop offset="100%" stop-color="rgba(16,185,129,0)"/>
		</radialGradient>

		<!-- Noise overlay -->
		<filter id="noise" x="0" y="0" width="100%" height="100%">
			<feTurbulence type="fractalNoise" baseFrequency="0.9" numOctaves="2" seed="2"/>
			<feColorMatrix values="0 0 0 0 1  0 0 0 0 1  0 0 0 0 1  0 0 0 0.04 0"/>
		</filter>
	</defs>

	<!-- Foundation -->
	<rect width="1200" height="630" fill="url(#bg)"/>

	<!-- Emerald glow (right third, product-as-light-source) -->
	<rect width="1200" height="630" fill="url(#glow)"/>

	<!-- Phone silhouette hint (right-aligned, blurred emerald glow) -->
	<g transform="translate(940, 175)">
		<ellipse cx="110" cy="140" rx="140" ry="140" fill="url(#phoneGlow)"/>
		<rect x="40" y="20" width="140" height="280" rx="28" ry="28" fill="none" stroke="rgba(16,185,129,0.35)" stroke-width="2"/>
		<rect x="52" y="40" width="116" height="230" rx="8" ry="8" fill="rgba(16,185,129,0.06)"/>
		<!-- Speaker line -->
		<rect x="95" y="30" width="30" height="3" rx="1.5" fill="rgba(255,255,255,0.15)"/>
		<!-- Bottom bar -->
		<rect x="75" y="275" width="70" height="4" rx="2" fill="rgba(255,255,255,0.15)"/>
		<!-- Inner content hint lines -->
		<rect x="64" y="60" width="72" height="6" rx="3" fill="rgba(16,185,129,0.45)"/>
		<rect x="64" y="80" width="92" height="4" rx="2" fill="rgba(255,255,255,0.18)"/>
		<rect x="64" y="96" width="68" height="4" rx="2" fill="rgba(255,255,255,0.12)"/>
		<rect x="64" y="140" width="92" height="44" rx="8" fill="rgba(16,185,129,0.12)" stroke="rgba(16,185,129,0.35)" stroke-width="1"/>
		<rect x="64" y="200" width="92" height="44" rx="8" fill="rgba(255,255,255,0.03)" stroke="rgba(255,255,255,0.08)" stroke-width="1"/>
	</g>

	<!-- Noise texture -->
	<rect width="1200" height="630" fill="white" filter="url(#noise)" opacity="0.6"/>

	<!-- Content area (left-biased) -->
	<!-- Wordmark -->
	<g transform="translate(80, 100)">
		<text x="0" y="0" font-family="Georgia, 'Times New Roman', serif" font-weight="700" font-size="36" fill="#FFFFFF" letter-spacing="-0.5">
			CloserCoach
		</text>
		<!-- Emerald underline accent -->
		<rect x="0" y="10" width="44" height="3" rx="1.5" fill="#10B981"/>
	</g>

	<!-- Eyebrow label (mono) -->
	<text x="80" y="220" font-family="'SF Mono', Menlo, Monaco, monospace" font-weight="500" font-size="14" fill="#10B981" letter-spacing="3">
		AI SALES COACH
	</text>

	<!-- Tagline (Lora Bold with italic emerald emphasis) -->
	<g transform="translate(80, 260)">
		<text x="0" y="0" font-family="Georgia, 'Times New Roman', serif" font-weight="700" font-size="60" fill="#FFFFFF" letter-spacing="-1.5">
			<tspan x="0" dy="0">The AI Sales Coach</tspan>
			<tspan x="0" dy="72">That Lives </tspan>
			<tspan font-style="italic" fill="#10B981">in Your Pocket.</tspan>
		</text>
	</g>

	<!-- Stats line (mono) -->
	<g transform="translate(80, 490)">
		<!-- Pill 1: 20K closers -->
		<rect x="0" y="0" width="220" height="44" rx="22" fill="rgba(255,255,255,0.04)" stroke="rgba(255,255,255,0.10)" stroke-width="1"/>
		<circle cx="22" cy="22" r="4" fill="#10B981"/>
		<text x="40" y="28" font-family="'SF Mono', Menlo, Monaco, monospace" font-weight="500" font-size="15" fill="#FFFFFF" letter-spacing="0.3">
			20,000+ closers
		</text>

		<!-- Pill 2: 4.7 App Store -->
		<rect x="240" y="0" width="200" height="44" rx="22" fill="rgba(245,158,11,0.08)" stroke="rgba(245,158,11,0.25)" stroke-width="1"/>
		<!-- Amber star -->
		<polygon points="262,13 265,20 272,21 267,26 268,33 262,30 256,33 257,26 252,21 259,20" fill="#F59E0B"/>
		<text x="280" y="28" font-family="'SF Mono', Menlo, Monaco, monospace" font-weight="500" font-size="15" fill="#FFFFFF" letter-spacing="0.3">
			4.7 App Store
		</text>
	</g>

	<!-- Bottom strip: URL + trial -->
	<g transform="translate(80, 570)">
		<text x="0" y="0" font-family="'SF Mono', Menlo, Monaco, monospace" font-size="13" fill="#94A3B8" letter-spacing="1">
			closercoach.ai
		</text>
		<line x1="120" y1="-5" x2="140" y2="-5" stroke="rgba(148,163,184,0.4)" stroke-width="1"/>
		<text x="160" y="0" font-family="'SF Mono', Menlo, Monaco, monospace" font-size="13" fill="#94A3B8" letter-spacing="1">
			3 days free. Full access.
		</text>
	</g>
</svg>
