<svg xmlns="http://www.w3.org/2000/svg" fill="none" viewBox="0 0 211 20" height="20" width="211">
<mask height="20" width="211" y="0" x="0" maskUnits="userSpaceOnUse" style="mask-type:luminance" id="mask0_684_478">
<path fill="white" d="M210.005 0H0.995117V20H210.005V0Z"></path>
</mask>
<g mask="url(#mask0_684_478)">
<path fill="#45392B" d="M209.137 4.02439C209.137 5.72343 207.893 6.88899 206.354 6.88899C204.815 6.88899 203.577 5.72343 203.577 4.02439C203.577 2.32535 204.821 1.15979 206.354 1.15979C207.887 1.15979 209.137 2.31955 209.137 4.02439ZM204.129 4.01279C204.129 5.38709 205.064 6.34389 206.354 6.34389C207.644 6.34389 208.595 5.39289 208.595 4.01279C208.595 2.63267 207.656 1.69908 206.354 1.69908C205.052 1.69908 204.129 2.64427 204.129 4.01279ZM206.332 4.42451C206.27 4.43029 206.157 4.43029 206.111 4.43029H205.948V5.46249H205.239V2.55729H206.376C207.132 2.55729 207.57 2.93421 207.57 3.52569C207.57 3.93741 207.339 4.18675 207.035 4.29113L207.662 5.46249H206.872L206.332 4.42451ZM206.416 3.89101C206.698 3.89101 206.844 3.75765 206.844 3.54309C206.844 3.32853 206.698 3.19515 206.416 3.19515H205.948V3.88521H206.416V3.89101Z"></path>
<path fill="#45392B" d="M209.137 4.02439C209.137 5.72343 207.893 6.88899 206.354 6.88899C204.815 6.88899 203.577 5.72343 203.577 4.02439C203.577 2.32535 204.821 1.15979 206.354 1.15979C207.887 1.15979 209.137 2.31955 209.137 4.02439ZM204.129 4.01279C204.129 5.38709 205.064 6.34389 206.354 6.34389C207.644 6.34389 208.595 5.39289 208.595 4.01279C208.595 2.63267 207.656 1.69908 206.354 1.69908C205.052 1.69908 204.129 2.64427 204.129 4.01279ZM206.332 4.42451C206.27 4.43029 206.157 4.43029 206.111 4.43029H205.948V5.46249H205.239V2.55729H206.376C207.132 2.55729 207.57 2.93421 207.57 3.52569C207.57 3.93741 207.339 4.18675 207.035 4.29113L207.662 5.46249H206.872L206.332 4.42451ZM206.416 3.89101C206.698 3.89101 206.844 3.75765 206.844 3.54309C206.844 3.32853 206.698 3.19515 206.416 3.19515H205.948V3.88521H206.416V3.89101Z"></path>
<path fill="#45392B" d="M6.40367 14.8449L4.1445 18.8055H1.86279L11.9474 1.19458H14.8488L24.9333 18.8113H22.6743L20.415 14.8507H6.40367V14.8449ZM13.4065 2.66747L7.37831 13.1807H19.4403L13.4065 2.66747Z"></path>
<path fill="#45392B" d="M27.4517 1.19458H41.5644C44.1559 1.19458 45.3616 1.53671 46.2629 2.53989C46.956 3.33433 47.3165 4.67965 47.3165 6.58165C47.3165 9.43465 46.6744 10.4378 44.5729 10.9423C46.3194 11.2845 46.9841 12.2065 46.9841 14.2418V18.8113H44.9334V15.4596C44.9842 12.421 44.2405 11.6846 41.2658 11.7078H29.5137V18.8113H27.463V1.19458H27.4517ZM40.7699 10.0377C44.2855 10.0377 45.1812 9.32447 45.1812 6.47147C45.1812 3.61847 44.2574 2.95741 40.6404 2.95741H29.5023V10.0377H40.7644H40.7699Z"></path>
<path fill="#45392B" d="M72.4152 2.61524C73.5196 3.80398 73.773 5.1783 73.773 9.98548C73.773 14.8159 73.5196 16.1902 72.4152 17.3789C71.1082 18.7764 69.7957 18.991 62.7701 18.991C55.7391 18.991 54.4321 18.7764 53.1251 17.3789C52.0209 16.1902 51.7617 14.8159 51.7617 10.0087C51.7617 5.1783 52.0209 3.77498 53.1251 2.61524C54.4321 1.21773 55.7448 1.00317 62.8772 1.00317C69.7787 1.00317 71.1138 1.24092 72.421 2.61524H72.4152ZM54.787 3.93736C54.066 4.7028 53.8912 5.97272 53.8912 10.0145C53.8912 14.0272 54.0716 15.2972 54.787 16.0626C55.6602 17.0136 56.7363 17.147 62.7646 17.147C68.7928 17.147 69.8745 16.9904 70.742 16.0626C71.4576 15.2972 71.6379 14.0272 71.6379 10.0145C71.6379 5.97272 71.4576 4.7028 70.742 3.93736C69.9477 3.03854 68.5111 2.85298 62.8659 2.85298C56.9617 2.85298 55.6039 3.03854 54.7814 3.93736H54.787Z"></path>
<path fill="#45392B" d="M78.7138 1.19458H82.0207L92.3364 16.3526L102.674 1.19458H105.88V18.8113H103.829V2.94001L93.0518 18.8113H91.5364L80.7589 2.94001V18.8113H78.708V1.19458H78.7138Z"></path>
<path fill="#45392B" d="M113.875 14.8448L111.616 18.8054H109.334L119.418 1.18872H122.32L132.404 18.8054H130.151L127.892 14.8448H113.88H113.875ZM120.878 2.66741L114.849 13.1806H126.911L120.883 2.66741H120.878Z"></path>
<path fill="#45392B" d="M148.212 8.9301C150.573 8.9301 151.266 8.21686 151.266 5.81616C151.266 4.2041 150.984 3.51984 150.111 3.17772C149.368 2.88778 148.444 2.8066 145.108 2.8066C139.463 2.8066 138.336 2.91096 137.412 3.54304C136.77 3.96634 136.539 4.73178 136.539 6.6048H134.539C134.539 4.91734 134.59 4.30848 134.849 3.64742C135.311 2.40648 136.156 1.74542 137.801 1.3743C139.007 1.11335 140.776 1.00317 144.573 1.00317C149.525 1.00317 150.883 1.18873 152.089 2.05854C153.041 2.7196 153.373 3.77498 153.373 5.99592C153.373 8.4778 152.81 9.3998 151.013 9.69554C152.962 10.0145 153.576 10.9655 153.576 13.6561C153.576 16.4047 153.114 17.5355 151.649 18.3067C150.624 18.8344 149.52 18.9388 145.007 18.9388C137.903 18.9388 136.618 18.7822 135.514 17.6747C134.669 16.857 134.41 15.877 134.41 13.4242H136.438C136.438 15.4827 136.596 16.0394 137.311 16.5381C137.953 16.9904 139.751 17.1702 143.7 17.1702C148.291 17.1702 149.706 17.0658 150.398 16.7237C151.243 16.3004 151.503 15.6393 151.503 13.9229C151.503 12.102 151.294 11.4932 150.579 11.0409C150.145 10.8031 149.683 10.7219 148.348 10.7219H141.627V8.9243H148.218L148.212 8.9301Z"></path>
<path fill="#45392B" d="M175.215 6.21042C175.215 4.59836 175.086 4.07066 174.573 3.62416C173.858 2.9631 172.827 2.80652 168.956 2.80652C164.111 2.80652 162.979 2.9399 161.925 3.57196C161.052 4.12866 160.77 4.99846 160.77 7.08604V10.9422C161.159 9.82886 161.514 9.27796 162.235 8.93584C163.08 8.48354 164.365 8.37916 168.776 8.37916C172.444 8.37916 174.061 8.48354 175.086 8.82566C175.83 9.04022 176.494 9.5679 176.911 10.2C177.294 10.7509 177.475 11.783 177.475 13.2617C177.475 15.6102 177.114 16.8512 176.218 17.6746C175.013 18.759 173.677 18.9967 168.596 18.9967C164.077 18.9967 162.9 18.9155 161.796 18.5966C160.258 18.1501 159.413 17.1991 159.024 15.587C158.765 14.5839 158.691 13.0762 158.691 9.93904C158.691 4.55196 159.001 3.22984 160.489 2.12228C161.745 1.20027 163.232 1.00891 168.928 1.00891C173.7 1.00891 175.215 1.32784 176.37 2.62096C177.114 3.4386 177.323 4.20404 177.373 6.21622H175.215V6.21042ZM162.077 10.7509C161.182 11.2264 160.821 12.073 160.821 13.7082C160.821 15.6102 161.334 16.4569 162.691 16.8512C163.463 17.0657 165.492 17.1933 168.466 17.1933C174.652 17.1933 175.396 16.77 175.396 13.3139C175.396 11.8352 175.187 11.1452 174.624 10.7799C173.829 10.2812 172.776 10.171 168.004 10.171C164.184 10.171 162.9 10.3044 162.077 10.7509Z"></path>
<path fill="#45392B" d="M200.703 2.61524C201.728 3.83298 201.937 5.1493 201.937 10.1652C201.937 14.7869 201.706 16.1844 200.703 17.3789C199.548 18.7532 198.342 18.991 192.004 18.991C185.694 18.991 184.489 18.7532 183.328 17.3789C182.325 16.1612 182.1 14.8159 182.1 9.98548C182.1 5.1783 182.331 3.80398 183.328 2.61524C184.483 1.24092 185.717 1.00317 192.004 1.00317C198.342 1.00317 199.548 1.24092 200.703 2.61524ZM184.951 3.91416C184.309 4.73178 184.128 5.97272 184.128 9.99128C184.128 14.033 184.309 15.274 184.951 16.0916C185.672 16.9904 186.956 17.1992 191.419 17.1992C197.447 17.1992 198.297 17.0658 199.092 16.0916C199.757 15.2972 199.914 14.1374 199.914 10.0725C199.914 5.84516 199.757 4.73758 199.092 3.91996C198.297 2.93996 197.452 2.81238 191.419 2.81238C186.956 2.81238 185.672 3.02114 184.951 3.91996V3.91416Z"></path>
</g>
</svg>
