<svg preserveAspectRatio="none" width="100%" height="100%" overflow="visible" style="display: block;" viewBox="0 0 127.273 28" fill="none" xmlns="http://www.w3.org/2000/svg">
<g id="coverd_logo.svg" clip-path="url(#clip0_0_15)">
<path id="Vector" d="M108.419 9.29481C108.887 9.29481 109.388 9.35416 109.919 9.47945V13.8285C109.128 13.6504 108.389 13.5614 107.71 13.5614C106.672 13.5614 105.834 13.901 105.198 14.5836C104.558 15.2628 104.248 15.9354 104.248 17.3895V22.8728H99.8958V14.0461L99.0714 9.48934H103.5L104.057 13.0734C104.878 10.4884 106.329 9.29481 108.419 9.29481ZM127.269 4.95237L126.666 15.8695L127.269 22.8728H122.937L122.627 20.0569C122.627 20.0569 121.242 21.6297 120.342 22.1869C119.454 22.7524 118.42 23.0468 117.368 23.0343C116.398 23.0343 115.36 22.7145 114.45 22.1243C113.507 21.4819 112.744 20.6105 112.231 19.592C111.71 18.5471 111.437 17.3963 111.433 16.2289C111.433 14.844 111.795 13.6636 112.152 12.8987C112.557 12.0414 113.454 10.8511 114.361 10.2675C115.25 9.64721 116.304 9.30729 117.388 9.29151C118.479 9.29151 119.422 9.58167 120.315 10.1257C121.245 10.6862 122.604 12.2161 122.604 12.2161L122.933 4.95237H127.269ZM118.697 19.2491C119.274 19.2491 119.824 19.104 120.345 18.8172C120.879 18.5204 121.344 18.1182 121.743 17.6071C122.145 17.096 122.647 16.2322 122.647 16.2322C122.647 16.2322 122.142 15.2727 121.74 14.7616C121.367 14.2631 120.891 13.8505 120.345 13.5515C119.844 13.2621 119.275 13.1097 118.697 13.1097C118.157 13.102 117.628 13.2559 117.176 13.5515C116.729 13.8372 116.365 14.2349 116.119 14.7052C115.873 15.1755 115.754 15.7019 115.775 16.2322C115.775 16.641 115.841 17.1488 116.088 17.6599C116.34 18.1371 116.716 18.5371 117.176 18.8172C117.625 19.104 118.133 19.2458 118.7 19.2458L118.697 19.2491ZM88.4874 17.4983C88.7871 18.1906 89.322 18.7547 89.9975 19.0909C90.7064 19.4535 91.5999 19.6349 92.6781 19.6349C94.4766 19.6304 96.2391 19.1308 97.7723 18.1907V21.145C96.8965 21.7717 95.9227 22.2486 94.8906 22.5562C93.7725 22.8885 92.6113 23.053 91.445 23.0442C89.9744 23.0442 88.6588 22.7574 87.4982 22.1803C86.3769 21.6357 85.4293 20.7897 84.7615 19.7371C84.1021 18.6919 83.7723 17.4917 83.7723 16.1365C83.7723 14.8012 84.0889 13.6175 84.7219 12.5755C85.3574 11.5412 86.2716 10.7069 87.3597 10.1686C88.5336 9.58042 89.8321 9.28408 91.1449 9.3047C92.5726 9.3047 93.8058 9.64431 94.8477 10.3169C95.9115 11.0085 96.7449 12.0015 97.2415 13.169C97.802 14.3956 98.0823 15.8398 98.0823 17.4983H88.4874ZM91.2406 12.5788C90.4987 12.5788 89.8656 12.7734 89.3479 13.1592C88.8338 13.5413 88.4624 14.0845 88.2928 14.7023H94.0399C93.8809 14.0819 93.5216 13.5313 93.0177 13.1361C92.5069 12.7515 91.8796 12.5537 91.2406 12.5755V12.5788ZM76.0865 18.6259L79.6376 9.47945H83.9801L78.5561 22.8629H73.6268L68.2128 9.47616H72.5519L76.0865 18.6259ZM60.6489 23.0475C59.2433 23.0758 57.8496 22.7837 56.5736 22.1935C55.4482 21.6632 54.4968 20.8239 53.8303 19.7734C53.1722 18.6919 52.8359 17.4452 52.8609 16.1794C52.8609 14.8275 53.184 13.6274 53.8303 12.5887C54.4925 11.5346 55.4451 10.6942 56.5736 10.1686C57.8476 9.57142 59.2422 9.27582 60.6489 9.3047C62.1887 9.3047 63.5439 9.59156 64.721 10.1686C65.8491 10.6921 66.8001 11.5331 67.4577 12.5887C68.1207 13.6684 68.4595 14.9159 68.4337 16.1827C68.4337 17.5346 68.1072 18.7348 67.4544 19.7734C66.7934 20.8248 65.8448 21.6647 64.721 22.1935C63.4459 22.7832 62.0535 23.0753 60.6489 23.0475ZM60.6489 19.592C61.3512 19.592 61.9579 19.4535 62.4657 19.1832C62.9658 18.9211 63.3742 18.5128 63.6362 18.0127C63.9181 17.4447 64.0573 16.8166 64.0418 16.1827C64.0418 15.4771 63.9033 14.8638 63.6263 14.3494C63.3666 13.8452 62.9579 13.433 62.4558 13.169C61.8973 12.8836 61.276 12.743 60.6489 12.7602C59.9466 12.7602 59.3399 12.8954 58.8289 13.169C58.3255 13.4347 57.9141 13.8461 57.6485 14.3494C57.366 14.9184 57.2268 15.5477 57.2429 16.1827C57.2429 16.885 57.3781 17.495 57.6485 18.0127C57.9165 18.5118 58.3275 18.9194 58.8289 19.1832C59.3399 19.4535 59.9466 19.592 60.6489 19.592ZM51.1365 17.2015C51.0316 18.3128 50.6181 19.3726 49.9429 20.2614C49.2496 21.1643 48.3386 21.8767 47.2952 22.332C46.1466 22.828 44.906 23.0752 43.6551 23.0574C42.1713 23.0574 40.859 22.7706 39.7083 22.1935C38.6074 21.6552 37.6814 20.8161 37.0375 19.7734C36.3972 18.6891 36.0707 17.4483 36.0945 16.1893C36.0945 14.8506 36.4078 13.6603 37.0408 12.6217C37.6816 11.5732 38.6081 10.7291 39.7116 10.1884C40.9377 9.58676 42.2895 9.2861 43.6551 9.3113C44.9904 9.3113 46.2005 9.55859 47.2952 10.0499C48.3416 10.5001 49.2538 11.2134 49.9429 12.1205C50.617 13.0096 51.0292 14.0694 51.1332 15.1803H46.8171C46.7036 14.4724 46.3193 13.8363 45.7455 13.4064C45.1396 12.9684 44.4056 12.7435 43.6584 12.7668C43.0154 12.7668 42.4516 12.8987 41.9669 13.1657C41.4887 13.4351 41.1035 13.8433 40.8623 14.3363C40.5934 14.9161 40.4625 15.5504 40.4798 16.1893C40.4798 17.2774 40.7634 18.1149 41.3305 18.715C41.9042 19.3085 42.6824 19.6019 43.6584 19.6019C44.4761 19.6019 45.1652 19.3876 45.7356 18.9524C46.3007 18.5245 46.6863 17.9015 46.8171 17.2048H51.1365V17.2015ZM5.70075 0.583551C5.64861 0.530715 5.58649 0.488762 5.518 0.460127C5.44951 0.431493 5.37602 0.416748 5.30179 0.416748C5.22756 0.416748 5.15406 0.431493 5.08557 0.460127C5.01709 0.488762 4.95497 0.530715 4.90282 0.583551C2.83442 2.74851 1.41452 5.45008 0.804379 8.38148C0.785659 8.47283 0.790027 8.56741 0.817087 8.65665C0.844147 8.7459 0.893044 8.82698 0.959349 8.89255L3.33335 11.2567C3.43805 11.3617 3.49684 11.504 3.49684 11.6523C3.49684 11.8006 3.43805 11.9429 3.33335 12.048L0.972537 14.4088C0.904973 14.4737 0.854552 14.5544 0.825783 14.6436C0.797014 14.7328 0.790793 14.8277 0.807676 14.9199C1.44923 17.9876 2.97363 20.8009 5.1933 23.0135C7.41297 25.2262 10.2311 26.7417 13.3008 27.3735C13.3922 27.3922 13.4868 27.3878 13.576 27.3608C13.6653 27.3337 13.7463 27.2848 13.8119 27.2185L16.1562 24.8775C16.208 24.8252 16.2697 24.7838 16.3376 24.7555C16.4055 24.7272 16.4783 24.7126 16.5519 24.7126C16.6255 24.7126 16.6983 24.7272 16.7662 24.7555C16.8341 24.7838 16.8958 24.8252 16.9476 24.8775L19.2886 27.2185C19.3562 27.287 19.4401 27.3371 19.5323 27.3642C19.6246 27.3913 19.7223 27.3945 19.8162 27.3735C22.7523 26.7669 25.4595 25.3493 27.6306 23.2816C27.6829 23.2295 27.7244 23.1676 27.7528 23.0994C27.7811 23.0313 27.7957 22.9581 27.7957 22.8843C27.7957 22.8105 27.7811 22.7374 27.7528 22.6692C27.7244 22.601 27.6829 22.5391 27.6306 22.487L5.70075 0.580254V0.583551Z" fill="var(--fill-0, #171F1E)"/>
<path id="Vector_2" d="M31.302 14.4089L28.9478 12.0481C28.8431 11.943 28.7843 11.8007 28.7843 11.6524C28.7843 11.5041 28.8431 11.3618 28.9478 11.2567L31.3119 8.89262C31.3782 8.82705 31.4271 8.74597 31.4542 8.65673C31.4812 8.56749 31.4856 8.47291 31.4669 8.38155C30.8553 5.45136 29.4369 2.75043 27.3717 0.583627C27.3196 0.531288 27.2577 0.489756 27.1895 0.461416C27.1214 0.433076 27.0482 0.418488 26.9744 0.418488C26.9006 0.418488 26.8275 0.433076 26.7593 0.461416C26.6911 0.489756 26.6292 0.531288 26.5771 0.583627L17.6713 9.48612C17.6406 9.51621 17.6162 9.55212 17.5995 9.59175C17.5829 9.63138 17.5743 9.67394 17.5743 9.71693C17.5743 9.75992 17.5829 9.80247 17.5995 9.84211C17.6162 9.88174 17.6406 9.91765 17.6713 9.94773L28.44 20.7132C28.4783 20.7527 28.5248 20.7833 28.5763 20.8028C28.6278 20.8222 28.6829 20.83 28.7378 20.8256C28.7926 20.8212 28.8458 20.8047 28.8935 20.7772C28.9413 20.7498 28.9823 20.7122 29.0137 20.667C30.2015 18.9321 31.033 16.9786 31.4603 14.9199C31.478 14.8283 31.4728 14.7337 31.4452 14.6446C31.4176 14.5554 31.3684 14.4745 31.302 14.4089Z" fill="var(--fill-0, #868F8F)"/>
</g>
<defs>
<clipPath id="clip0_0_15">
<rect width="127.273" height="28" fill="white"/>
</clipPath>
</defs>
</svg>
