<svg preserveAspectRatio="none" width="100%" height="100%" overflow="visible" style="display: block;" viewBox="0 0 92.4 28" fill="none" xmlns="http://www.w3.org/2000/svg">
<g id="fidelity.svg" clip-path="url(#clip0_0_11)">
<path id="Vector" d="M28 0H0V28H28V0Z" fill="var(--fill-0, white)"/>
<path id="Vector_2" d="M14.0478 9.00668V12.04H19.1811L18.3411 13.86H14.0478V15.26H17.7345L16.8945 17.08H14.0478V22.6333H10.8278V17.08H9.00781V15.26H10.8278V13.86H9.00781V12.04H10.8278V6.34668H19.1811V9.00668" fill="var(--fill-0, black)"/>
<path id="Vector_3" d="M33.0391 13.6736V15.2136H34.3457V20.0669H37.0991V15.2136H39.7124L40.4124 13.6736H37.0991V12.7869H40.7857L41.4857 11.2469H37.0991V8.63359H41.4857V6.34693H34.3457V11.2003H33.0391V12.7403H34.3457V13.6269M42.6524 11.1536H45.4057V20.0203H42.6524M44.0524 6.02026C43.2124 6.02026 42.6057 6.76693 42.6057 7.51359C42.6057 8.21359 43.2124 8.96026 44.0524 8.96026C44.8457 8.96026 45.4991 8.26026 45.4991 7.46693C45.4991 6.67359 44.7991 6.02026 44.0524 6.02026ZM53.3857 12.3203V6.30026H55.8591V20.0203H53.4791V18.7603H53.4324C52.7324 19.8336 51.7057 20.2536 50.5391 20.2536C48.0657 20.2536 46.3857 18.0136 46.3857 15.5403C46.3857 13.0669 47.9724 10.8736 50.5391 10.8736C51.6591 10.8736 52.4991 11.2469 53.3391 12.3203M53.4791 15.5869C53.4791 14.2336 52.7324 12.9736 51.1924 12.9736C49.7457 12.9736 48.9991 14.2803 48.9991 15.5869C48.9991 16.9869 49.7924 18.2003 51.2391 18.2003C52.6857 18.2003 53.4791 17.0336 53.4791 15.5403M65.8457 16.2403H59.3591C59.4524 17.2669 60.1057 18.2936 61.4124 18.2936C62.2057 18.2936 62.8591 17.9203 63.1857 17.2203L65.6124 17.4069C65.0524 19.2269 63.4191 20.1603 61.3191 20.1603C58.6124 20.1603 56.7457 18.3403 56.7457 15.4936C56.7457 12.6003 58.6124 10.7803 61.3191 10.7803C63.9791 10.7803 65.8457 12.6003 65.8457 15.4936M63.3724 14.6069C63.2791 13.7203 62.6257 12.6936 61.4124 12.6936C60.1057 12.6936 59.4991 13.5803 59.3591 14.6069M66.7791 19.9269H69.2524V6.20693H66.7791M70.4657 19.9269H72.9857V11.0136H70.4657M71.7257 5.92693C70.8857 5.92693 70.2791 6.67359 70.2791 7.42026C70.2791 8.12026 70.8857 8.86693 71.7257 8.86693C72.5191 8.86693 73.1724 8.16693 73.1724 7.37359C73.1724 6.58026 72.4724 5.92693 71.7257 5.92693ZM78.9124 17.9669C78.7724 18.0136 78.6324 18.0136 78.3991 18.0136C77.7457 18.0136 77.6057 17.8269 77.6057 17.4069V12.9269H78.9124V11.0136H77.6057V8.21359H75.0857V11.0136H73.9657V12.9269H75.0857V17.6869C75.0857 19.6003 76.0657 20.0203 77.6991 20.0203C78.1191 20.0203 78.4924 19.9736 78.9124 19.9269M81.9924 22.4469H84.6057L88.9457 11.0136H86.1924L84.2791 16.8936L82.3657 11.0136H79.6124L82.9724 19.9269M36.4924 27.9069H35.9324L35.5124 26.2736L35.0924 27.9069H34.5324L33.8791 25.5269H34.4391L34.8124 27.2536L35.1857 25.5269H35.7457L36.1191 27.2069L36.4924 25.4803H37.0524M38.8257 25.4336C39.6191 25.4336 40.0391 26.0403 40.0391 26.6469C40.0391 27.3003 39.6191 27.8603 38.8257 27.8603C38.0324 27.8603 37.6124 27.2536 37.6124 26.6469C37.6124 25.9936 38.0324 25.4336 38.8257 25.4336ZM38.8257 25.8536C38.3591 25.8536 38.1257 26.2736 38.1257 26.6469C38.1257 27.0203 38.3591 27.4403 38.8257 27.4403C39.2924 27.4403 39.5257 27.0669 39.5257 26.6469C39.5257 26.2736 39.2924 25.8536 38.8257 25.8536ZM42.6991 27.8603H42.0924L41.6257 26.9269H41.3457V27.8603H40.8324V25.4803H41.7657C42.2791 25.4803 42.6057 25.7603 42.6057 26.1803C42.6057 26.4136 42.4657 26.7403 42.1391 26.8336M41.3457 25.9003V26.5069H41.6724C42.0457 26.5069 42.0924 26.3203 42.0924 26.1803C42.0924 25.9936 41.9524 25.8536 41.6724 25.8536M44.8457 27.8136H43.3524V25.4336H43.8657V27.3469H44.8457M45.5457 27.8136V25.4336H46.4791C47.2724 25.4336 47.6924 25.8536 47.6924 26.6003C47.6924 27.4403 47.0857 27.7669 46.5257 27.7669M46.0591 25.8069V27.3469H46.4791C46.9924 27.3469 47.1791 26.9269 47.1791 26.5536C47.1791 26.2736 47.0857 25.8069 46.4324 25.8069M50.8191 27.7669H50.2591L49.8391 26.1336L49.4657 27.7669H48.9057L48.2524 25.3869H48.8124L49.1857 27.0669L49.5591 25.3403H50.1191L50.5391 27.0203L50.9124 25.2936H51.4257M52.6391 27.6736H52.1257V25.2936H52.6391M53.5257 27.6736V25.2936H54.4591C55.2524 25.2936 55.6724 25.7136 55.6724 26.4603C55.6724 27.3003 55.0657 27.6269 54.5057 27.6736M54.0391 25.7136V27.2536H54.4591C54.9724 27.2536 55.1591 26.8336 55.1591 26.4603C55.1591 26.1803 55.0657 25.7136 54.4124 25.7136M58.0524 27.6736H56.4191V25.2936H58.0524V25.7136H56.9791V26.2269H58.0057V26.6469H56.9791V27.2069H58.0524M60.5724 27.6736H60.0591V25.2936H60.5724M63.5124 27.6736H62.9991L61.9724 26.0869V27.6736H61.4591V25.2936H62.0191L63.0457 26.8336V25.2469H63.5124M65.5191 27.6269H64.9591L64.1657 25.2469H64.7257L65.2391 26.9736L65.7524 25.2469H66.3124M68.5524 27.6269H66.9191V25.2469H68.5524V25.6669H67.4324V26.1803H68.5057V26.6003H67.4324V27.1603H68.5524M70.5124 25.8536C70.5124 25.7136 70.3257 25.6203 70.1391 25.6203C69.9057 25.6203 69.7657 25.7136 69.7657 25.8536C69.7657 25.9936 69.9057 26.0869 70.0457 26.1336L70.5124 26.2736C70.8857 26.4136 71.0724 26.6003 71.0724 26.9269C71.0724 27.1603 70.8857 27.6736 70.1391 27.6736C69.2991 27.6736 69.2057 27.1603 69.2057 26.9269H69.7191C69.7191 27.2536 69.9991 27.2536 70.1391 27.2536C70.3257 27.2536 70.5591 27.1603 70.5591 27.0203C70.5591 26.9269 70.5124 26.8336 70.2324 26.7403L69.7191 26.5536C69.4391 26.4603 69.2524 26.2269 69.2524 25.9469C69.2524 25.7136 69.4391 25.2003 70.0924 25.2003C71.0257 25.2003 71.0257 25.8536 71.0257 25.8536M72.8457 27.6269H72.3324V25.7136H71.6791V25.2936H73.4991V25.7136H72.8457M76.7657 27.6736H76.2991V26.0869L75.6457 27.6736H75.3191L74.6657 26.1336V27.6736H74.1991V25.2936H74.7591L75.5057 26.8803L76.2057 25.2936H76.7657M79.2391 27.6736H77.6524V25.2936H79.2391V25.7136H78.1657V26.2269H79.2391V26.6936H78.1657V27.2069H79.2391M82.0391 27.6736H81.5257L80.4991 26.0869V27.6736H79.9857V25.2936H80.5457L81.5724 26.8336V25.2936H82.0391M83.9057 27.6736H83.3924V25.7136H82.7391V25.2936H84.5591V25.7136H83.9057M89.4591 4.76026H88.9924V4.43359H90.2991V4.76026H89.8324V6.20693H89.4591M92.0724 5.04026L91.6057 6.20693H91.3724L90.9057 5.04026V6.20693H90.5791V4.43359H90.9991L91.4657 5.64693L91.9791 4.43359H92.3991V6.20693H92.0724" fill="var(--fill-0, white)"/>
</g>
<defs>
<clipPath id="clip0_0_11">
<rect width="92.4" height="28" fill="white"/>
</clipPath>
</defs>
</svg>
