<svg preserveAspectRatio="none" width="100%" height="100%" overflow="visible" style="display: block;" viewBox="0 0 61.042 32" fill="none" xmlns="http://www.w3.org/2000/svg">
<g id="land-rover.svg" clip-path="url(#clip0_0_4)">
<path id="Vector" fill-rule="evenodd" clip-rule="evenodd" d="M41.4002 20.6142L41.956 19.1002H39.4011L39.797 17.9453H42.5651L43.1728 16.2751H37.948L37.8754 16.4875L37.9999 16.6102C38.1349 16.7406 38.1289 16.8952 38.0128 17.2319L35.8362 23.5135H40.7191L41.3088 21.8323H38.4592L38.8787 20.6142H41.3999H41.4002ZM35.3057 16.2794L32.6454 21.4811H32.5894L32.455 16.2794H30.2292L30.1424 16.4671L30.3339 16.5825C30.5178 16.7118 30.5691 16.8433 30.5931 17.2042L30.8943 23.5162H33.3747L37.3763 16.2794H35.306H35.3057ZM15.3495 17.2125L9.86407 19.0083L9.19449 20.8382H14.0321L14.6619 19.114H11.3081L15.1148 17.8313L15.3495 17.2125ZM20.5448 18.9064C20.4198 19.2156 20.2815 19.2898 20.1019 19.363C19.9801 19.4103 19.7244 19.4275 19.4767 19.4275H18.5194L19.0403 17.9321H20.1971C20.5435 17.9321 20.6849 18.1112 20.6895 18.3158C20.6916 18.446 20.6311 18.6842 20.5448 18.9064ZM20.3727 16.2794H17.234L17.1706 16.4671L17.2975 16.5908C17.4317 16.7226 17.4266 16.8777 17.309 17.2125L15.1161 23.516H17.1203L17.9775 21.0138L18.6555 21.0146L19.41 23.516H21.4241L20.4765 20.956C21.0262 20.8672 21.3029 20.711 21.5785 20.4666C21.956 20.1224 22.218 19.6399 22.4347 18.9292C22.7507 17.8982 22.5597 17.3093 22.3562 17.0065C22.0768 16.5905 21.4873 16.2791 20.3727 16.2791V16.2794ZM47.2635 18.9064C47.139 19.2156 46.9994 19.2898 46.8219 19.363C46.698 19.4103 46.4444 19.4275 46.1981 19.4275H45.241L45.7579 17.9321H46.9166C47.2608 17.9321 47.4044 18.1112 47.4073 18.3158C47.4108 18.446 47.349 18.6842 47.2635 18.9064ZM47.0892 16.2794H43.9505L43.8895 16.4671L44.0153 16.5908C44.1498 16.7226 44.1433 16.8777 44.0288 17.2125L41.8334 23.5162H43.84L44.6959 21.0149H45.3744L46.1289 23.5162H48.1409L47.1962 20.9562C47.7448 20.8675 48.0202 20.7113 48.2955 20.4668C48.6742 20.1226 48.9371 19.6402 49.1531 18.9295C49.4701 17.8985 49.2789 17.3096 49.0759 17.0068C48.7965 16.5908 48.2063 16.2794 47.0892 16.2794ZM51.2048 25.9915C45.6987 28.8239 38.3537 30.3839 30.5205 30.3839C22.6891 30.3839 15.3455 28.8242 9.83852 25.9915C4.54319 23.2667 1.62393 19.7179 1.62393 16.0011C1.62393 12.281 4.54319 8.7325 9.83852 6.00955C15.3455 3.17795 22.6891 1.61613 30.5207 1.61613C38.354 1.61613 45.6987 3.17822 51.2051 6.00955C56.5018 8.73224 59.4175 12.281 59.4175 16.0011C59.4175 19.7176 56.5018 23.2667 51.2051 25.9915H51.2048ZM51.9503 4.57304C46.2158 1.6242 38.6057 0 30.5207 0C22.4363 0 14.8262 1.6242 9.09284 4.57304C5.69708 6.32067 0 10.1287 0 16.0011C0 21.8708 5.69708 25.6804 9.09284 27.4278C14.8243 30.3763 22.4342 32 30.521 32C38.6076 32 46.2174 30.3763 51.9503 27.4278C55.3466 25.6804 61.042 21.8721 61.042 16.0011C61.042 10.1276 55.346 6.3204 51.9503 4.57304ZM50.4336 24.5064C44.5088 27.5531 37.1402 28.7107 30.5207 28.7107C23.9016 28.7107 16.5343 27.5531 10.6084 24.5064C7.4724 22.8929 3.30487 19.9185 3.30487 16.0008C3.30487 12.0801 7.47187 9.10871 10.6084 7.4958C16.5343 4.44934 23.901 3.29089 30.5207 3.29089C37.1402 3.29089 44.5088 4.44719 50.4333 7.4958C53.5715 9.10871 57.7377 12.0796 57.7377 16.0011C57.7377 19.9199 53.5707 22.8926 50.4333 24.5064H50.4336ZM50.741 6.90151C44.7255 3.80558 37.2362 2.62077 30.5207 2.62077C23.805 2.62077 16.317 3.80666 10.3 6.90151C6.92114 8.63866 2.63261 11.7741 2.63261 16.0011C2.63261 20.2248 6.92168 23.3613 10.3 25.1009C16.3173 28.1936 23.8069 29.3795 30.5207 29.3795C37.2362 29.3795 44.7255 28.1955 50.741 25.1006C54.1211 23.3613 58.4094 20.2248 58.4094 16.0008C58.4094 11.7741 54.1222 8.63893 50.741 6.90151ZM27.3853 20.0264C27.1357 20.7373 26.94 21.1953 26.6512 21.4973C26.4239 21.7347 26.1246 21.9049 25.4338 21.9049C24.8925 21.9049 24.5913 21.685 24.5913 21.2679C24.5878 20.9985 24.6607 20.5897 24.9506 19.7954C25.2007 19.0846 25.3959 18.6267 25.6858 18.3239C25.9101 18.0873 26.2112 17.9162 26.9018 17.9162C27.4428 17.9162 27.7437 18.1362 27.7432 18.5517C27.7483 18.8238 27.6749 19.2325 27.3853 20.0264ZM27.2694 16.1904H27.0389C25.6686 16.1904 24.8866 16.5583 24.2439 17.2367C23.4452 18.0784 22.6947 20.3517 22.7095 21.5554C22.7243 22.7813 23.5216 23.6313 25.1966 23.6313H25.4413C26.8149 23.6313 27.5974 23.2635 28.2396 22.5847C29.0383 21.742 29.7729 19.4692 29.7584 18.2674C29.7423 17.0412 28.9455 16.1904 27.2694 16.1904ZM12.8269 14.7141L17.7877 14.713L18.3871 12.988H15.5033L17.4088 7.47805H14.9211L14.8588 7.66467L14.9833 7.78783C15.1183 7.9196 15.1134 8.07503 14.9962 8.41035L12.8269 14.7141ZM25.8966 14.7114H27.7201L29.3096 10.0297L30.24 14.7114H32.0645L34.5519 7.47563L32.6446 7.47832L31.3162 11.4114L30.5573 7.47832H27.9871L27.9244 7.66467L28.0503 7.78783C28.1853 7.9196 28.1788 8.07503 28.0637 8.41035L25.8966 14.7114ZM37.1759 9.19449H37.9703C38.5116 9.19449 38.8101 9.37466 38.8173 9.79227C38.8214 10.0612 38.7493 10.429 38.4683 11.2231C38.2204 11.9328 38.0225 12.3439 37.7401 12.6456C37.5145 12.8826 37.2139 12.988 36.5233 12.988H35.8596L37.1759 9.19449ZM35.4321 8.41035L33.262 14.7141H36.4644C37.8372 14.7141 38.62 14.4118 39.2565 13.7331C40.0535 12.8933 40.7828 10.7079 40.7589 9.50534C40.7355 8.27778 39.9392 7.47832 38.265 7.47832H35.3549L35.2944 7.66467L35.4208 7.78783C35.5544 7.9196 35.5493 8.07503 35.4321 8.41035ZM47.5154 10.073H42.6789L42.0491 11.7959H45.401L41.5938 13.0821L41.3588 13.6987L46.8442 11.9029L47.5154 10.073ZM23.3796 9.47845H23.4455L23.4797 11.6641H22.1413L23.3796 9.47845ZM18.3018 14.7114H20.4117L21.326 13.1122H23.5111L23.5326 14.7111H25.4475L25.0345 7.47832H22.1679L22.1042 7.66467L22.1967 7.75664C22.3478 7.90373 22.2854 8.1159 21.7275 8.99738L18.3018 14.7114Z" fill="var(--fill-0, white)"/>
</g>
<defs>
<clipPath id="clip0_0_4">
<rect width="61.042" height="32" fill="white"/>
</clipPath>
</defs>
</svg>
