<svg preserveAspectRatio="none" width="100%" height="100%" overflow="visible" style="display: block;" viewBox="0 0 157.902 40.0208" fill="none" xmlns="http://www.w3.org/2000/svg">
<g id="Group">
<path id="Vector" d="M35.5249 22.1554C35.5249 23.171 35.9611 23.4611 37.4566 23.4611C38.952 23.4611 39.6582 23.0259 40.6136 21.0155H40.9667L40.6136 24.1658H31.3086V23.8134C32.721 23.4611 32.8456 23.1502 32.8456 21.8445V14.0311C32.8456 12.9326 32.5756 12.6217 31.3086 12.3316V11.9792H37.0619V12.3316C35.8365 12.6425 35.5249 12.8912 35.5249 13.9482V22.1554Z" fill="var(--fill-0, black)"/>
<path id="Vector_2" d="M44.8908 22.4456C44.8908 23.2332 45.2854 23.6684 46.1578 23.7513V24.1036H41.1937V23.7928C42.253 23.5648 42.5022 23.3161 42.5022 22.3005V18.114C42.5022 17.1399 42.2322 16.8912 41.0898 16.6632V16.3109L44.5169 16H44.87V22.4456H44.8908ZM43.7069 11.1503C44.4546 11.1503 45.0777 11.772 45.0777 12.5181C45.0777 13.2643 44.4546 13.886 43.7069 13.886C42.9592 13.886 42.3361 13.2643 42.3361 12.5181C42.3361 11.772 42.9592 11.1503 43.7069 11.1503Z" fill="var(--fill-0, black)"/>
<path id="Vector_3" d="M50.0204 17.9896C50.8097 17.2435 51.2459 17.0777 51.869 17.0777C53.2814 17.0777 54.1952 18.3834 54.1952 20.3109C54.1952 22.8601 53.0113 23.8964 51.2874 23.8964C50.3735 23.8964 50.062 23.5026 50.062 22.5907V17.9896H50.0204ZM50.0204 11.1503H49.6674L46.4688 11.3782V11.7306C47.2165 11.8549 47.6526 12.2073 47.6526 12.9119V24.1658C48.8365 24.3938 50.0204 24.4767 51.4744 24.4767C55.2961 24.4767 56.7915 22.4663 56.7915 20.0415C56.7915 17.7617 55.1714 15.9586 53.0529 15.9586C51.9105 15.9586 50.9966 16.3938 50.0204 17.4093V11.1503Z" fill="var(--fill-0, black)"/>
<path id="Vector_4" d="M60.2579 19.088C60.2994 17.5958 60.964 16.6009 61.9195 16.6009C62.8957 16.6009 63.5811 17.6579 63.6849 19.088H60.2579ZM66.2189 19.5647C65.9073 17.4092 64.3288 16.0206 62.0856 16.0206C59.6348 16.0206 57.7031 17.8652 57.7031 20.3108C57.7031 22.7149 59.5517 24.4766 62.0025 24.4766C63.8926 24.4766 65.5127 23.4196 66.2189 21.7616H65.8658C65.1181 22.9015 64.2042 23.461 63.0618 23.461C61.6079 23.461 60.154 22.1553 60.2579 19.5647H66.2189Z" fill="var(--fill-0, black)"/>
<path id="Vector_5" d="M73.7406 19.0258C73.0344 18.3626 72.5152 18.0103 71.9751 18.0103C71.2689 18.0103 70.8328 18.3212 70.2097 19.1502V22.3419C70.2097 23.2538 70.3758 23.5647 71.5182 23.7927V24.145H66.5126V23.7927C67.5719 23.5232 67.8211 23.2331 67.8211 22.3419V18.2383C67.8211 17.2227 67.3849 16.7875 66.3672 16.7046V16.3523L69.7943 16.0414H70.1474V18.5284H70.1889C70.9782 16.8289 71.809 16.0414 72.7852 16.0414C73.3044 16.0414 73.8029 16.2694 74.1975 16.7046L73.7406 19.0258Z" fill="var(--fill-0, black)"/>
<path id="Vector_6" d="M87.0347 16.3108V16.6632C88.0524 16.8912 88.2601 17.4922 87.5539 19.1502L86.4531 21.6373L84.7915 18.2176C84.3138 17.202 84.3138 16.7668 85.1862 16.6425V16.2901H80.6167H80.4921H78.2074V13.3057H77.8543C76.7535 14.715 75.4449 15.9792 74.4688 16.601V16.9948H75.8811V22.0311C75.8811 23.8342 77.065 24.5181 78.5605 24.5181C79.7444 24.5181 80.4921 24.1243 81.0529 23.1088L80.7829 22.8808C80.3882 23.316 80.0352 23.5026 79.6405 23.5026C78.5397 23.5026 78.1866 22.7564 78.1866 21.4922V16.9326H80.2844C81.4268 16.9326 81.7798 17.3264 82.2576 18.4248L85.1031 24.4766C84.1269 27.0673 83.2961 28.1036 81.8629 28.1036C81.5514 28.1036 81.3021 28.1036 80.8036 27.9378L80.3259 30.3005C80.6375 30.3419 80.7621 30.3419 80.9906 30.3419C82.6107 30.3419 83.483 29.6373 84.3346 27.7513L88.2809 18.7357C88.9455 17.2849 89.1533 16.9741 90.171 16.7254V16.373H87.0347V16.3108Z" fill="var(--fill-0, black)"/>
<path id="Vector_7" d="M109.777 21.9689C109.902 23.0259 110.442 23.627 111.626 23.8549V24.2073H105.602V23.8549C106.911 23.5026 107.181 22.7565 106.911 21.1814L105.893 14.2176H105.852L101.905 24.2073H101.469L97.5644 14.2176H97.5228L96.4636 21.3679C96.2351 22.7772 96.5051 23.7306 97.9175 23.8135V24.1658H93.4727V23.8135C94.7812 23.772 95.3627 23.0259 95.6328 21.1399L96.8582 13.2021C96.3805 12.7254 95.7158 12.3731 95.0927 12.3731V12.0208H99.496L102.695 20.0415L105.935 12.0208H110.089V12.4145C108.863 12.6425 108.552 13.285 108.718 14.3834L109.777 21.9689Z" fill="var(--fill-0, black)"/>
<path id="Vector_8" d="M112.581 18.114C112.581 17.2435 112.269 16.9327 111.356 16.7461V16.3938L114.596 16.0829H114.949V21.8653C114.949 22.7772 115.572 23.2332 116.403 23.2332C117.192 23.2332 117.67 22.8808 118.376 21.8238V17.9482C118.376 17.285 117.94 16.9327 117.15 16.7669V16.4145L120.391 16.1036H120.744V22.3213C120.744 23.3783 120.972 23.5855 122.011 23.8964V24.2487L118.417 24.5596V22.6321H118.376C117.504 23.9378 116.527 24.5596 115.26 24.5596C113.64 24.5596 112.664 23.6891 112.664 22.1555V18.114H112.581Z" fill="var(--fill-0, black)"/>
<path id="Vector_9" d="M123.776 17.0155H122.363V16.6218C123.339 16 124.648 14.7772 125.749 13.3264H126.143V16.3523H128.74V16.9741H126.143V21.4922C126.143 22.7565 126.497 23.5026 127.597 23.5026C127.992 23.5026 128.387 23.3368 128.74 22.8808L129.01 23.1088C128.449 24.0829 127.639 24.5181 126.517 24.5181C125.022 24.5181 123.838 23.8135 123.838 22.0311V17.0155H123.776Z" fill="var(--fill-0, black)"/>
<path id="Vector_10" d="M130.233 18.114C130.233 17.2435 129.922 16.9326 129.008 16.7461V16.3938L132.248 16.0829H132.601V21.8653C132.601 22.7772 133.224 23.2331 134.055 23.2331C134.844 23.2331 135.322 22.8808 136.028 21.8238V17.9482C136.028 17.285 135.633 16.9326 134.803 16.7668V16.4145L138.043 16.1036H138.396V22.3212C138.396 23.3782 138.624 23.5855 139.621 23.8964V24.2487L136.028 24.5596V22.6321H135.987C135.114 23.9378 134.138 24.5596 132.871 24.5596C131.251 24.5596 130.275 23.6891 130.275 22.1554V18.114H130.233Z" fill="var(--fill-0, black)"/>
<path id="Vector_11" d="M144.985 22.8808C144.466 23.3989 143.967 23.7098 143.489 23.7098C142.825 23.7098 142.389 23.1502 142.389 22.3004C142.389 21.2435 143.012 20.7668 144.943 19.9378V22.8808H144.985ZM147.373 18.9844C147.373 16.8289 145.608 16.0414 143.905 16.0414C142.056 16.0414 140.789 17.0155 140.395 18.715H140.706C141.184 17.8445 141.973 17.4093 143.074 17.4093C144.486 17.4093 145.047 18.0725 145.047 19.4611C143.116 20.1657 140 20.3315 140 22.4455C140 23.5854 141.059 24.4973 142.368 24.4973C143.344 24.4973 144.029 24.2694 144.819 23.5854L144.985 23.4196C145.379 24.2072 145.899 24.5181 146.875 24.5181C148.017 24.5181 148.723 23.9999 148.807 22.9844H148.453C148.37 23.4611 148.142 23.7305 147.83 23.7305C147.477 23.7305 147.353 23.4196 147.353 22.6735V18.9844H147.373Z" fill="var(--fill-0, black)"/>
<path id="Vector_12" d="M150.445 13.3472C150.445 12.2488 150.092 11.855 148.949 11.7721V11.4198L152.418 11.1918H152.771V22.3213C152.771 23.3783 152.999 23.5856 154.183 23.8964V24.2488H148.949V23.8964C150.092 23.7306 150.445 23.3368 150.445 22.3213V13.3472Z" fill="var(--fill-0, black)"/>
<g id="Group_2">
<path id="Vector_13" d="M16.4371 20.6633C15.9594 20.7876 15.4609 21.057 15.4609 21.057V21.4923C15.6894 21.5752 15.8971 21.8032 16.084 22.0104L16.4371 21.9275L16.3125 21.6581C16.3125 21.6581 16.541 21.5337 16.7902 21.5337C17.1018 21.5337 17.4133 21.5752 17.538 21.6995L18.3272 21.5337L18.4103 21.3679C17.891 20.912 17.1433 20.5182 16.4371 20.6633Z" fill="var(--fill-0, black)"/>
<path id="Vector_14" d="M14.8567 17.6787C14.6282 17.9067 14.0674 18.5906 14.2959 19.2538C14.5243 19.0259 14.9605 18.6943 15.2721 18.5492L14.8567 17.6787Z" fill="var(--fill-0, black)"/>
<path id="Vector_15" d="M28.4612 15.8756C28.3781 15.7513 28.1496 15.8342 28.1496 15.8342L24.5148 17.2435C24.2448 16.5389 23.8917 15.8756 23.5386 15.3161L24.7225 12.0829C24.7225 12.0829 24.8472 11.772 24.7225 11.6891C24.5979 11.6062 24.3694 11.8135 24.3694 11.8135L22.2301 13.5544C21.3993 12.6839 20.3816 11.9378 19.2808 11.399C18.8446 11.2332 18.4084 11.0466 17.9722 10.9223L17.3076 8.37306C17.3076 8.37306 17.266 8.10363 17.0791 8.10363C16.8922 8.10363 16.8506 8.37306 16.8506 8.37306L16.4145 10.6528C15.9368 10.6114 15.4383 10.5699 14.9606 10.5699C13.3405 10.5699 11.9281 10.8808 10.6611 11.4404C10.1419 11.6684 9.60186 11.9585 9.16569 12.3109C9.08261 12.3523 9.04107 12.4352 8.93721 12.4767C8.50104 11.3368 8.14795 10.4249 8.06487 10.114C8.33488 9.88601 8.81259 9.05699 8.93721 8.53886C9.10338 7.75129 9.06184 7.39896 8.89567 6.83938C8.77105 6.40414 8.50104 6.01036 8.50104 5.74093C8.50104 5.51295 8.62566 5.3886 8.72951 5.3057C8.68797 5.03627 8.50104 4.91192 8.29334 4.87047C8.06487 4.82901 7.94025 4.91192 7.77409 4.91192C7.73255 4.82902 7.64947 4.82901 7.69101 4.55958C7.77409 4.12435 8.6672 3.89637 9.31108 3.64767C10.1834 3.29534 10.6819 2.67357 10.7234 1.67876C10.7234 0.932642 10.3288 0.414508 9.80956 0.145078C9.72648 0.455958 9.29031 0.849741 8.97876 1.01554C8.6672 1.18135 8.27257 1.24352 7.96102 1.18135C8.00256 0.663212 7.79486 0.165803 7.40022 0C7.2756 0.227979 6.77712 0.559585 6.0917 0.518135C5.38552 0.518135 5.34398 0.352332 4.32624 0.352332C2.87233 0.352332 1.68843 1.2228 1.56381 2.50777C1.48073 3.33679 1.79228 4.04145 2.04152 4.39378C1.87536 4.51813 1.41842 4.91192 1.37688 5.05699C1.2938 4.93264 0.982244 4.78756 0.629151 5.01554C0.712232 5.18135 0.712232 5.40933 0.670692 5.63731C0.629151 5.84456 0.109897 6.8601 0.00604663 7.68912C-0.077034 9.09844 0.712232 10.0104 1.37688 10.2798C1.25226 10.5078 1.21072 10.7565 1.2938 10.943C1.37688 11.0674 1.52227 11.2124 1.77151 11.2124C1.60535 11.3782 1.54304 11.6477 1.64689 11.9171C1.77151 12.228 2.1246 12.6632 2.39461 12.6632C2.39461 12.9326 2.4777 13.4922 2.56078 13.7617C2.4777 13.9275 2.3323 14.114 2.39461 14.4663C2.39461 14.8186 2.66463 15.1295 2.95541 15.2124C3.03849 15.3782 3.08003 15.6062 3.18388 15.6891C3.26696 15.8135 3.35004 15.9585 3.62005 16.0829C3.84853 16.2073 4.09777 16.3523 4.40932 16.3523C4.72087 16.3523 4.97011 16.3523 5.11551 16.3109C5.11551 16.3938 5.15705 17.1813 5.19859 18.0725C4.45086 20.1658 4.05623 22.5907 4.05623 25.1606C4.05623 29.8031 5.36475 33.9689 7.91948 36.6425C7.91948 36.6425 8.0441 36.8083 8.48027 37.0777C8.48027 37.0777 9.26954 35.7098 10.495 34.1762C10.8065 33.7824 11.1596 33.3886 11.5543 33.0363C12.1774 32.5181 12.7382 32.0622 13.2574 31.6684C14.8359 30.6114 16.6429 29.7824 18.3046 29.43C16.3729 30.4456 15.3137 30.9637 13.5274 32.4974C12.3851 33.4715 10.5781 35.2124 9.31108 37.5337C9.58109 37.7617 9.93418 37.9275 10.3288 37.9689C10.5988 37.658 11.9489 35.2124 14.0259 33.2021C18.2422 29.3057 23.1648 28.3731 25.7403 28.4352C25.8649 27.3782 25.9687 26.2383 25.9687 25.0984C25.9687 23.2124 25.8026 21.4715 25.408 19.7927L28.4612 16.3523C28.3365 16.228 28.5442 16.0207 28.4612 15.8756ZM23.9956 12.7254L21.607 17.7617C21.337 17.5959 20.4231 16.7876 19.9869 16.6218L23.9956 12.7254ZM17.0999 9.43005L18.2422 15.8342C17.8892 15.6684 16.7468 15.5648 16.2691 15.6684L17.0999 9.43005ZM14.5452 16.2694C14.1505 16.4974 13.569 17.057 13.4443 17.5337L10.5988 12.7254L14.5452 16.2694ZM12.6966 20.9534L11.5127 20.1243C11.5127 19.8549 11.4712 19.3782 11.4296 19.1503C11.4296 19.1088 11.4296 19.0674 11.4296 19.0674L12.9251 19.772C12.8005 20 12.7589 20.1243 12.6966 20.3316C12.6551 20.6218 12.6966 20.7461 12.6966 20.9534ZM2.60232 2.65285C2.64386 1.98964 3.16311 1.24352 4.26393 1.20207C4.74164 1.16062 5.40629 1.28497 5.71784 1.28497C6.02939 1.28497 6.90174 1.20207 7.08867 1.05699C7.21329 1.28497 7.17175 1.53368 7.04713 1.76166C7.31714 1.88601 8.02333 2.03109 8.31411 2.03109C8.93721 2.03109 9.53955 1.67876 9.76802 1.36788C9.8511 1.67876 9.80956 2.15544 9.49801 2.42487C8.8749 2.943 7.52484 3.21243 7.13021 3.52332C6.77712 3.79275 6.6525 3.9171 6.56942 4.14508C6.4448 4.02072 6.34094 3.87565 6.13324 3.9171C5.86323 3.95855 5.73861 4.18653 5.4686 4.18653C5.15705 4.18653 4.9078 3.62694 4.4924 3.62694C3.8693 3.62694 3.66159 4.10363 3.39158 4.10363C3.22542 4.10363 2.95541 3.8342 2.87233 3.70984C2.6854 3.44041 2.56078 3.04663 2.60232 2.65285ZM1.06532 8.0829C0.982244 7.81347 0.836853 7.68912 0.899164 7.33679C0.899164 6.943 1.16918 6.59067 1.2938 6.27979C1.41842 6.03109 1.33534 5.57513 1.25226 5.49223C1.37688 5.45078 1.68843 5.61658 1.87536 5.57513C2.10383 5.49223 2.18691 5.40933 2.26999 5.2228C2.35307 5.03627 2.43616 4.87047 2.66463 4.87047C2.83079 4.82901 3.22542 5.03627 3.53697 4.95337C3.93161 4.87047 4.05623 4.47668 4.40932 4.47668C4.76241 4.47668 5.03242 4.91192 5.32321 4.95337C5.6763 4.99482 6.15401 4.60104 6.46557 4.72539C6.77712 4.84974 6.63173 5.34715 6.8602 5.51295C7.08867 5.67876 7.60792 5.51295 7.73255 5.4715C7.69101 5.6373 7.64946 5.82383 7.64946 6.03109C7.69101 6.25907 8.0441 6.943 8.0441 7.17098C8.0441 7.48186 8.08564 7.73057 7.96102 8C7.91948 7.12953 6.8602 6.03109 4.4924 5.98964C2.43616 5.96891 1.02378 6.81865 1.06532 8.0829ZM6.19555 8.60104C5.92554 8.37306 5.44783 7.93782 4.43009 7.93782C3.59928 7.93782 2.93464 8.29015 2.85156 8.55958C2.81002 8.1658 2.85156 7.89637 3.12157 7.68912C3.43312 7.41969 3.91084 7.29534 4.38855 7.29534C5.09474 7.29534 5.57245 7.46114 5.84246 7.68912C6.15401 7.95855 6.23709 8.2487 6.19555 8.60104ZM3.12157 11.1917C3.03849 11.2746 2.81002 11.6269 2.76848 11.8135C2.60232 11.7306 2.37384 11.2953 2.3323 11.1088C2.45693 10.8394 2.81002 10.5907 2.99695 10.5492C2.83079 10.5492 2.51924 10.5492 2.24922 10.5907C2.16614 10.4249 2.1246 10.114 2.16614 9.88601H2.4777L2.29076 9.49223C2.51924 9.26425 3.3085 8.87046 3.74467 8.87046C3.78622 9.03627 3.78622 9.2228 3.78622 9.3057C3.78622 9.3886 3.74468 9.4715 3.66159 9.53368C3.57851 9.57513 3.26696 9.76166 3.26696 9.76166C3.43312 9.72021 3.82776 9.76166 3.97315 9.76166C4.09777 9.76166 4.13931 9.80311 4.13931 9.92746C4.13931 10.0518 4.09777 10.1969 4.01469 10.2798C3.97315 10.3627 3.74467 10.3627 3.62005 10.3627C3.70313 10.487 3.70313 10.5907 3.70313 10.715C3.70313 10.8394 3.66159 10.943 3.53697 10.9845C3.43312 11.0259 3.26696 11.1088 3.12157 11.1917ZM5.51014 14.342C5.34398 14.2591 4.84549 13.9896 4.45086 14.0311C4.05623 14.0311 3.70313 14.114 3.39158 14.342C3.26696 14.2591 3.22542 14.0725 3.3085 13.8653C3.39158 13.6373 3.53697 13.6373 3.53697 13.6373L3.41235 11.6684C3.41235 11.6684 3.97315 11.2746 4.11854 11.2332C4.24316 11.1917 4.34701 11.0674 4.34701 10.9223C4.61702 11.0881 4.97011 11.4404 5.13628 11.7098C5.30244 11.9793 5.40629 12.228 5.44783 12.5389C5.44783 12.8497 5.44783 13.2435 5.40629 13.6373C5.53091 13.7202 5.63476 13.8031 5.6763 13.9896C5.63476 14.1762 5.59322 14.2176 5.51014 14.342ZM6.23709 20.1658C6.15401 20.0414 5.80092 12.8083 5.80092 12.5389C5.80092 12.5181 5.80092 12.4974 5.80092 12.4974L6.19555 12.228V12.1865C5.92554 12.1865 5.57245 12.1036 5.48937 11.9171L5.40629 9.69948C5.05319 9.65803 4.61702 9.53368 4.4924 9.3886C4.38855 9.24352 4.26393 9.11917 4.26393 8.93264C4.26393 8.82901 4.2847 8.68394 4.36778 8.51813C4.53394 8.64249 5.11551 8.82901 5.63476 8.82901C5.71784 8.82901 5.94631 9.05699 6.07093 9.09844C6.19555 9.13989 6.46557 9.26425 6.54865 9.32642C6.63173 9.3886 6.71481 9.59585 6.71481 9.67875C6.75635 9.76166 10.3496 19.0881 10.4119 19.1917C10.4534 19.2746 10.6819 20.8497 10.6819 20.9948C10.6819 21.1192 11.2427 22.3627 11.3466 22.487C11.3258 22.487 11.305 22.487 11.305 22.487C11.3258 22.5285 11.3466 22.5492 11.3466 22.5699C10.8688 22.5285 10.1211 22.8394 9.45647 23.4404C8.83336 24.0622 8.27257 25.4093 8.14795 26.0311C8.08564 25.6995 6.34094 20.3109 6.23709 20.1658ZM9.80956 32.6218C9.45647 33.1813 8.54258 34.3834 8.18949 34.7772C8.54258 34.0725 8.81259 32.3316 8.81259 31.0052C8.81259 30.1347 8.54258 28.2073 8.77105 26.9223C9.04107 25.5544 9.4357 24.7668 10.308 23.9378C10.7858 23.5026 11.7204 22.9637 13.112 23.3161L14.2128 25.3679C13.652 25.2435 12.842 25.3679 12.3228 25.7617C11.3466 26.5492 11.0142 27.5648 10.8273 29.057C10.6404 30.5078 10.3288 31.7306 9.80956 32.6218ZM10.9519 31.8756C11.2219 31.2539 11.575 29.5544 11.6581 28.9741C11.7827 28.228 11.9281 27.171 12.8005 26.4249C13.2366 26.0725 13.9428 26.0311 14.2544 26.114L15.4798 28.6632C15.6044 28.9326 15.9575 29.0155 16.2275 29.0155C15.0229 29.3679 12.0943 30.7772 10.9519 31.8756ZM16.9545 28.8083L16.5183 27.2746L17.5361 25.8238C17.5361 25.8238 16.4352 26.1762 16.1237 26.2176C16.0406 26.2176 15.5629 26.3005 15.4175 25.8238C15.4175 25.8238 15.3344 25.4715 15.3344 25.3471C15.3344 25.2228 15.4175 25.0363 15.5629 25.0777C15.7291 25.1192 15.8744 25.0363 15.8744 25.0363L16.1029 24.7254C15.9368 24.6839 15.7083 24.6425 15.6252 24.6425C15.5421 24.6425 15.3967 24.7254 15.2306 24.7668C15.1475 24.6839 15.0021 24.601 15.0644 24.4145H15.9783H16.2068L16.2483 24.2902C16.2483 24.2902 15.6252 24.0207 15.4175 24.0207C15.1475 24.0207 15.0644 24.1451 15.0644 24.1451V23.9171L15.7291 23.2953L15.0229 23.0259L14.6282 23.1088L14.8982 21.5337L14.7736 21.2642L14.109 21.658V20.7876C14.109 20.6218 14.4205 20.3109 14.6698 20.1658L14.6282 19.6477C14.3582 19.8135 14.0674 19.9171 13.8805 20.1658C13.7144 20.3938 13.5274 20.6839 13.5274 20.9948C13.2989 20.7668 13.2574 20.4767 13.2989 20.2487C13.3405 19.9378 13.4651 19.7306 13.7767 19.4611C13.6936 19.1917 13.6936 18.7565 13.7767 18.3212C13.9428 17.6166 14.7529 16.2694 16.726 16.2694C17.9099 16.2694 19.3223 16.9741 20.2777 17.7202C21.5032 18.6943 22.2509 19.5233 22.2924 19.8135C22.334 19.9378 22.3755 20.1243 22.3755 20.1658C22.2509 20 21.2747 19.0674 21.2747 19.0674L20.6516 19.8135L21.7939 20.829C21.5239 20.9948 21.2747 21.0984 20.8177 21.057C20.2985 20.9741 19.1146 20.228 19.1146 19.6477C18.6369 19.4197 17.5361 19.1295 16.6637 19.1295C16.0406 19.1295 15.4383 19.2539 15.2098 19.3575C14.9813 19.399 14.8567 19.3161 14.6905 19.2332L14.6282 19.2953L15.0644 20C15.189 20.0829 15.459 19.9171 15.8121 19.8756C16.3729 19.7927 17.2245 19.8756 17.8268 20.228C18.2215 20.4974 19.4054 21.4508 19.6754 21.7202C19.9039 21.9896 20.2985 22.0725 20.4647 21.886C20.6308 21.7202 20.9008 21.7202 20.8593 21.9275C20.8593 22.1554 20.7347 22.3627 20.9424 22.4456C21.1501 22.5285 21.2539 22.3627 21.3785 22.2798C21.5032 22.1554 21.6486 22.1554 21.8147 22.2383C21.6901 22.4663 21.4201 22.7979 21.1501 23.0259C20.8801 23.2539 20.527 23.4197 20.2777 23.3368L20.1116 23.7306L21.2539 26.3212C21.5655 26.8808 21.607 27.0674 21.8147 27.4611C19.6338 27.7927 17.6191 28.5389 16.9545 28.8083ZM22.9363 27.2332C22.7078 26.8808 22.5832 26.6114 22.3755 26.0518C22.3755 26.0518 21.7109 24.829 21.5862 24.601C21.4616 24.3731 21.3578 24.0829 21.5862 23.772C21.8147 23.4611 22.2924 23.0259 22.5624 22.8601L22.6455 24.3938C22.6455 24.3938 23.6633 26.2798 24.0994 27.2332C23.684 27.2332 23.2894 27.2332 22.9363 27.2332ZM23.3725 20.4352C23.3725 20.0414 22.8948 19.0259 22.6247 18.8186L27.2773 16.7668L23.3725 20.4352Z" fill="var(--fill-0, black)"/>
<path id="Vector_16" d="M20.7325 18.7772C20.504 18.5492 19.1955 17.7616 18.8424 17.5958L18.4062 18.6943C18.7178 18.7772 19.6732 19.2539 20.1717 19.5647L20.7325 18.7772Z" fill="var(--fill-0, black)"/>
<path id="Vector_17" d="M17.8522 18.5077L18.1222 17.3264C17.7276 17.1606 17.2498 17.0155 16.7514 17.0155C16.2736 17.0155 15.7336 17.1399 15.4844 17.3678L15.8375 18.4248C16.3152 18.3005 17.4991 18.2383 17.8522 18.5077Z" fill="var(--fill-0, black)"/>
</g>
<path id="Vector_18" d="M156.531 21.4508C157.237 21.4508 157.902 22.0104 157.902 22.8601C157.902 23.6891 157.237 24.2695 156.531 24.2695C155.825 24.2695 155.16 23.7099 155.16 22.8601C155.16 22.0104 155.846 21.4508 156.531 21.4508ZM156.531 23.9379C157.092 23.9379 157.59 23.5026 157.59 22.8394C157.59 22.1762 157.113 21.741 156.531 21.741C155.949 21.741 155.472 22.1762 155.472 22.8394C155.534 23.5026 155.97 23.9379 156.531 23.9379ZM156.012 22.0933H156.573C156.967 22.0933 157.133 22.2176 157.133 22.5285C157.133 22.798 156.967 22.9223 156.739 22.9223L157.133 23.5855H156.863L156.469 22.9223H156.24V23.5855H155.97V22.0933H156.012ZM156.323 22.7565H156.593C156.759 22.7565 156.905 22.7151 156.905 22.5285C156.905 22.342 156.739 22.3005 156.593 22.3005H156.323V22.7565Z" fill="var(--fill-0, black)"/>
<path id="Vector_19" d="M79.1389 28.5388H31.4922V29.0155H79.1389V28.5388Z" fill="var(--fill-0, black)"/>
<path id="Vector_20" d="M154.391 28.5388H85.6836V29.0155H154.391V28.5388Z" fill="var(--fill-0, black)"/>
<g id="Group_3">
<path id="Vector_21" d="M58.9297 33.1814H60.1551V39.7928H58.9297V33.1814Z" fill="var(--fill-0, black)"/>
<path id="Vector_22" d="M63.8555 33.1814H64.9978L67.7603 37.8653V33.1814H68.9026V39.7928H67.7603L64.9978 35.1089V39.7928H63.8555V33.1814Z" fill="var(--fill-0, black)"/>
<path id="Vector_23" d="M72.8469 37.8239C73.3246 38.5285 74.0308 38.8394 74.8616 38.8394C75.4847 38.8394 76.274 38.6114 76.274 38.0104C76.274 37.4923 75.7963 37.3472 74.9032 37.1399L74.1554 36.9741C73.0962 36.7047 72.1823 36.3524 72.1823 35.1296C72.1823 33.7202 73.4908 33.0778 74.737 33.0778C75.8794 33.0778 76.7932 33.513 77.4994 34.3835L76.4402 35.171C76.1286 34.5493 75.5263 34.1969 74.6747 34.1969C73.9685 34.1969 73.4077 34.4664 73.4077 34.943C73.4077 35.5026 74.0308 35.6063 74.7785 35.7721L75.5678 35.9379C76.544 36.1658 77.4994 36.5596 77.4994 37.8239C77.4994 39.4405 75.9624 40.0208 74.5916 40.0208C73.4908 40.0208 72.3484 39.5441 71.7461 38.6114L72.8469 37.8239Z" fill="var(--fill-0, black)"/>
<path id="Vector_24" d="M86.1165 37.7824C86.1165 39.1502 85.0572 39.9793 83.4372 39.9793C81.8586 39.9793 80.7578 39.1088 80.7578 37.7824V33.2228H81.9833V37.4715C81.9833 38.259 82.3363 38.7772 83.3956 38.7772C84.4964 38.7772 84.808 38.259 84.808 37.4715V33.2228H86.0334V37.7824H86.1165Z" fill="var(--fill-0, black)"/>
<path id="Vector_25" d="M89.6719 33.1814H92.4343C93.8467 33.1814 94.6775 34.0104 94.6775 35.1918C94.6775 36.684 93.6597 37.0363 93.369 37.1607L94.8644 39.8342H93.4105L92.1435 37.3887H90.9596V39.8342H89.7342V33.1814H89.6719ZM90.8973 36.2902H92.2681C92.8912 36.2902 93.369 35.9379 93.369 35.2747C93.369 34.6529 92.9743 34.2591 92.102 34.2591H90.9181L90.8973 36.2902Z" fill="var(--fill-0, black)"/>
<path id="Vector_26" d="M99.4932 33.1814H100.947L103.149 39.7928H101.84L101.446 38.5285H98.9531L98.5585 39.7928H97.25L99.4932 33.1814ZM100.199 34.4042L99.2855 37.4301H101.134L100.199 34.4042Z" fill="var(--fill-0, black)"/>
<path id="Vector_27" d="M105.953 33.1814H107.096L109.858 37.8654V33.1814H111V39.7928H109.9L107.137 35.1089V39.7928H105.953V33.1814Z" fill="var(--fill-0, black)"/>
<path id="Vector_28" d="M118.873 35.4197C118.79 34.6736 118.167 34.1969 117.419 34.1969C116.11 34.1969 115.529 35.3782 115.529 36.5181C115.529 37.658 116.089 38.8394 117.419 38.8394C118.291 38.8394 118.79 38.2798 118.997 37.4715L120.14 37.9896C119.62 39.2953 118.727 39.9585 117.419 39.9585C115.321 39.9585 114.262 38.342 114.262 36.4974C114.262 34.6114 115.446 33.0363 117.419 33.0363C118.727 33.0363 119.745 33.7409 120.098 35.0881L118.873 35.4197Z" fill="var(--fill-0, black)"/>
<path id="Vector_29" d="M122.82 33.1814H127.514V34.3213H124.087V35.8135H127.244V36.912H124.087V38.6114H127.784V39.7513H122.862V33.1814H122.82Z" fill="var(--fill-0, black)"/>
</g>
</g>
</svg>
