<svg preserveAspectRatio="none" width="100%" height="100%" overflow="visible" style="display: block;" viewBox="0 0 167.382 24.12" fill="none" xmlns="http://www.w3.org/2000/svg">
<g id="Group">
<path id="Vector" d="M0 18.48H2.40405V2.28L7.21214 18.48H9.07528L13.8834 2.34V18.48H16.4076V0.3H12.2005L8.17376 13.92L4.20708 0.3H0V18.48ZM25.0622 4.68C21.4561 4.68 19.0521 7.2 19.0521 11.76C19.0521 16.32 21.396 18.78 25.0622 18.78C28.6683 18.78 31.0723 16.26 31.0723 11.76C31.0723 7.2 28.7284 4.68 25.0622 4.68ZM21.5763 11.76C21.5763 8.22 23.0187 6.6 25.0622 6.6C27.1056 6.6 28.5481 8.22 28.5481 11.76C28.5481 15.3 27.1056 16.92 25.0622 16.92C23.0788 16.86 21.5763 15.3 21.5763 11.76ZM33.6567 18.48H36.1809V9.36C37.443 7.38 38.6451 6.84 39.8471 6.84C40.1476 6.84 40.4481 6.84 40.6284 6.96V4.62C40.4481 4.56 40.1476 4.5 39.8471 4.5C38.585 4.5 37.1425 5.4 36.1809 7.08V4.92H33.6567V18.48ZM46.6385 18.72C48.141 18.72 49.1628 18.12 50.1845 17.28V18.24C50.1845 20.58 49.4032 21.96 46.7587 21.96C45.2562 21.96 43.9941 21.42 42.8521 20.7L41.8304 22.62C42.9122 23.34 44.9557 24 46.8789 24C50.485 24 52.7688 21.96 52.7688 18.6V4.92H50.3047V6.06C49.283 5.22 48.2011 4.68 46.6986 4.68C43.7536 4.68 41.1092 6.66 41.1092 11.7C41.1092 16.8 43.7537 18.72 46.6385 18.72ZM43.5733 11.76C43.5733 8.04 45.136 6.6 46.939 6.6C48.2011 6.6 49.0426 7.08 50.1244 8.04V15.48C49.0426 16.44 48.141 16.86 46.939 16.86C45.136 16.86 43.5733 15.48 43.5733 11.76ZM59.3199 18.78C60.7022 18.78 62.0845 18.12 63.2264 17.16C63.587 18.12 64.4285 18.6 65.8108 18.6C66.1714 18.6 66.4719 18.54 66.7724 18.42V16.62C66.5921 16.62 66.4719 16.62 66.2916 16.62C65.6906 16.62 65.4502 16.38 65.4502 15.78V8.94C65.4502 6.36 63.7673 4.62 60.7623 4.62C58.4784 4.62 56.3749 5.7 54.9926 7.44L56.5552 8.82C57.7572 7.44 59.1395 6.66 60.4618 6.66C62.4451 6.66 62.986 7.8 62.986 9.18V9.78L60.2815 10.38C56.3148 11.28 54.9926 12.96 54.9926 15.06C55.1128 16.98 56.435 18.78 59.3199 18.78ZM57.5769 14.94C57.5769 13.68 58.2981 12.78 60.6421 12.18L63.1062 11.58V15.48C62.0845 16.32 60.9426 16.92 59.8007 16.92C58.2981 16.98 57.5769 16.02 57.5769 14.94ZM69.1163 18.48H71.6406V8.28C72.7224 7.14 73.8643 6.54 75.0664 6.54C76.2684 6.54 77.1699 7.32 77.1699 8.76V18.42H79.6942V8.82C79.6942 6 78.1315 4.5 75.7275 4.5C74.285 4.5 72.9027 4.98 71.6406 6.18V4.92H69.1163V18.48ZM92.9164 18.72C96.2821 18.72 99.1669 16.86 99.1669 13.62C99.1669 10.32 96.9432 9.3 93.1568 8.04C90.873 7.26 89.0699 6.66 89.0699 4.86C89.0699 2.94 90.5725 2.16 92.3755 2.16C94.2987 2.16 95.8614 3.24 96.7028 5.04L98.7462 3.96C97.5442 1.26 95.08 0 92.3755 0C89.1901 0 86.4856 1.8 86.4856 5.04C86.4856 8.04 88.6492 9.24 92.1351 10.32C94.6593 11.1 96.5225 11.76 96.5225 13.74C96.5225 15.72 94.8396 16.5 92.9164 16.5C90.6927 16.5 88.8896 15.42 87.9881 13.56L85.9447 14.76C87.2068 17.34 89.8513 18.72 92.9164 18.72ZM106.259 16.62C105.237 16.62 104.756 16.2 104.756 15.24V6.84H107.281V4.92H104.756V1.2H102.232V4.92H100.008V6.84H102.232V15.66C102.232 17.58 103.314 18.6 105.718 18.6C106.199 18.6 106.68 18.54 107.281 18.42V16.62C106.86 16.62 106.68 16.62 106.259 16.62ZM113.05 18.78C114.433 18.78 115.815 18.12 116.957 17.16C117.317 18.12 118.159 18.6 119.541 18.6C119.902 18.6 120.202 18.54 120.503 18.42V16.62C120.323 16.62 120.202 16.62 120.022 16.62C119.421 16.62 119.181 16.38 119.181 15.78V8.94C119.181 6.36 117.498 4.62 114.493 4.62C112.209 4.62 110.105 5.7 108.723 7.44L110.286 8.82C111.488 7.44 112.87 6.66 114.192 6.66C116.176 6.66 116.716 7.8 116.716 9.18V9.78L114.012 10.38C110.045 11.28 108.723 12.96 108.723 15.06C108.843 16.98 110.165 18.78 113.05 18.78ZM111.307 14.94C111.307 13.68 112.029 12.78 114.373 12.18L116.837 11.58V15.48C115.815 16.32 114.673 16.92 113.531 16.92C112.029 16.98 111.307 16.02 111.307 14.94ZM122.847 18.48H125.371V8.28C126.453 7.14 127.595 6.54 128.797 6.54C129.999 6.54 130.9 7.32 130.9 8.76V18.42H133.425V8.82C133.425 6 131.862 4.5 129.458 4.5C128.015 4.5 126.633 4.98 125.371 6.18V4.92H122.847V18.48ZM140.396 16.56C139.495 16.56 139.134 16.2 139.134 15.3V0.3H136.61V15.6C136.61 17.46 137.632 18.54 139.855 18.54C140.336 18.54 140.817 18.48 141.298 18.36V16.44C140.997 16.56 140.697 16.56 140.396 16.56ZM153.859 15.72L151.996 14.64C151.154 16.2 150.013 16.92 148.51 16.92C146.527 16.92 145.084 15.54 144.904 12.36H153.979V11.46C153.979 7.02 151.695 4.62 148.33 4.62C144.784 4.62 142.38 7.08 142.38 11.7C142.38 16.38 144.844 18.72 148.45 18.72C151.094 18.78 152.657 17.7 153.859 15.72ZM148.39 6.54C150.133 6.54 151.395 7.74 151.635 10.5H145.024C145.265 7.74 146.587 6.54 148.39 6.54ZM157.405 22.02C156.924 22.02 156.443 21.9 155.842 21.66L155.181 23.58C155.963 23.94 156.744 24.12 157.525 24.12C159.689 24.12 160.831 23.04 161.732 20.64L167.382 4.98H164.858L161.251 15.66L157.465 4.92H154.821L159.989 18.84L159.629 19.8C158.968 21.36 158.547 22.02 157.405 22.02Z" fill="var(--fill-0, #231F20)"/>
</g>
</svg>
