<svg preserveAspectRatio="none" width="100%" height="100%" overflow="visible" style="display: block;" viewBox="0 0 152.206 27.9999" fill="none" xmlns="http://www.w3.org/2000/svg">
<g id="Group">
<path id="Vector" d="M21.3332 9.43579V9.23064C21.3332 6.56397 20.5127 4.30758 18.8717 2.76902C17.0255 1.02544 14.2563 0.102336 10.9742 0.102336H0V27.8971H6.25656V18.8716H9.8463L15.1795 27.8971H22.2563L16.1024 17.6409C18.4614 16.5127 21.3332 14.2564 21.3332 9.43579ZM15.0766 9.53835C15.0766 12.1025 13.333 13.6408 10.4613 13.6408H6.25615V5.53826H10.4613C13.4357 5.53826 15.0766 6.8716 15.0766 9.53835ZM109.231 0L98.7696 27.8975H105.026L107.18 21.9488H116.923L119.077 27.8975H125.539L115.077 0H109.231ZM114.975 16.7179H109.026L112.001 8.20525L114.975 16.7179ZM143.693 13.7436L152 0.205102H145.129L140.206 9.02554L135.385 0.205102H128.206L136.411 13.8463L127.796 27.9999H134.667L139.898 18.6666L145.129 27.9999H152.206L143.693 13.7436ZM34.1526 22.564V16.6152H45.3322V11.282H34.1526V5.5383H46.768V0.102381H27.9987V27.8972H39.6908L42.5626 22.564H34.1526ZM87.4845 0.102381L81.228 9.12788L74.8691 0.102381H74.7663L68.4075 12.205V27.8972H74.4585V10.6664L81.0225 19.1791V19.2817H81.3303L87.997 10.6663V27.897H94.0481V0.102225L87.4845 0.102381Z" fill="var(--fill-0, white)"/>
<path id="Vector_2" d="M60.729 0.0996094L46.0625 27.8941H53.6521L68.3186 0.0996094H60.729Z" fill="var(--fill-0, #FFC25A)"/>
</g>
</svg>
