<svg preserveAspectRatio="none" width="100%" height="100%" overflow="visible" style="display: block;" viewBox="0 0 171.43 24" fill="none" xmlns="http://www.w3.org/2000/svg">
<g id="Group">
<path id="Vector" d="M100.247 7.05751C99.3632 6.43414 98.0822 6.16698 96.8233 6.16698C93.9743 6.16698 91.9424 7.59184 90.6173 9.57328C89.2921 11.577 88.6737 14.1373 88.6737 16.4304C88.6737 18.0779 88.9167 19.6364 89.9105 21.0167C90.3964 21.7069 91.5891 23.3321 95.454 23.3321C98.1264 23.3321 99.4074 22.6197 100.092 22.2189L100.202 22.0631C100.335 21.462 100.799 18.7681 100.975 18.1002L100.843 17.9889C99.4957 19.0798 98.016 19.859 96.3375 19.859C95.2111 19.859 94.3498 19.5918 93.7755 19.0798C93.2013 18.5677 92.9142 17.8108 92.9142 16.8534C92.9142 16.4972 92.9363 16.1855 92.9584 15.8293V15.7403H93.0467C95.6749 15.6735 97 15.6289 99.2086 15.6289C99.9374 15.6289 100.732 15.6289 101.704 15.6512L101.881 15.5399C102.102 14.5158 102.345 13.3358 102.345 11.8887C102.345 10.6419 102.212 8.34879 100.247 7.05751ZM98.5018 12.6902L98.4798 12.757L95.8957 12.7792L93.3559 12.8237L93.378 12.7347L93.4001 12.6902C93.4442 12.5121 93.5105 12.3117 93.5768 12.1113C93.7534 11.5547 93.9964 10.9314 94.4381 10.3748C94.5264 10.2857 94.5927 10.1744 94.681 10.0853C95.4761 9.21707 96.227 9.08349 96.6908 9.08349C97.3755 9.08349 97.8614 9.35065 98.1926 9.77366C98.2368 9.84045 98.3031 9.90724 98.3473 9.99629C98.5019 10.2635 98.6123 10.5751 98.6344 10.9091C98.6564 11.0204 98.6564 11.154 98.6564 11.2653C98.6564 11.7328 98.5681 12.2226 98.5018 12.6902ZM88.4971 9.75139L88.3204 9.9295L85.7805 9.86271L84.61 15.4286C84.4554 16.1187 84.0799 17.8776 84.0799 18.4341C84.0799 18.9685 84.2787 19.3247 84.5437 19.525C84.8088 19.7477 85.1621 19.8145 85.4492 19.8145C86.156 19.8145 86.3989 19.6141 86.8627 19.436L86.9511 19.5028L86.3327 22.7087L86.1118 22.9091C85.2505 23.0872 84.61 23.243 83.6824 23.243C81.3192 23.2208 79.6186 22.4416 79.6186 19.6586C79.6186 18.3673 80.1487 16.0074 80.5242 14.2486L81.4518 9.81818L79.464 9.88497L79.3536 9.70687L79.9278 6.58998L80.1045 6.47867H82.1364L82.9536 2.38219L83.1082 2.20408C85.1401 1.69202 85.7143 1.42486 87.5695 0.823749L87.6578 0.935066L87.0394 3.58442L86.3989 6.56772L89.005 6.47867L89.0713 6.61224L88.4971 9.75139ZM119.748 4.49722L119.616 4.65306L112.924 4.6308L111.842 10.2635L117.694 10.0853L117.783 10.2189C117.297 11.8442 117.186 12.2894 116.855 13.692L116.7 13.8256L111.135 13.8033L110.406 17.6994L109.478 22.7755L109.346 22.8868L104.553 23.0204L104.487 22.8868L105.326 18.5677L106.607 12.4675C107.557 7.72542 107.844 6.23377 108.75 1.06865L108.904 0.935066H115.905L120.345 0.823749L120.433 0.935066L119.748 4.49722ZM129.201 7.23562C128.273 6.56772 126.794 6.23377 124.74 6.23377C123.724 6.23377 122.73 6.32282 121.692 6.52319C120.786 6.7013 120.212 6.83488 119.726 6.99073L119.594 7.1243L118.931 10.5306L119.152 10.6642C119.572 10.4638 120.19 10.2189 121.029 9.9295C121.868 9.64008 122.641 9.48423 123.348 9.48423C124.364 9.48423 125.137 9.61781 125.667 9.90724C126.219 10.1967 126.595 10.8423 126.595 11.5547C126.595 11.7328 126.573 11.8887 126.551 12.0223C126.529 12.1558 126.506 12.2449 126.506 12.3117L126.484 12.3785C126.484 12.3785 126.153 12.4007 125.8 12.423C125.579 12.4453 125.27 12.4898 124.938 12.5121C124.386 12.5788 123.746 12.6456 123.171 12.757C121.824 12.9796 118.048 13.5807 116.921 16.1187C115.729 18.2115 115.927 20.9944 117.098 22.3302C117.518 22.7978 118.136 23.2653 118.997 23.4211C119.041 23.4434 119.174 23.4434 119.196 23.4657C122.465 23.9777 124.806 21.1058 124.806 21.1058L124.452 22.8868L124.607 23.0204L128.273 22.8868L128.428 22.7532L130.592 11.7996C130.636 11.577 130.681 11.2876 130.703 10.9759C130.725 10.6642 130.747 10.397 130.747 10.2189C130.747 8.88312 130.128 7.90353 129.201 7.23562ZM125.424 18.1892C125.424 18.1892 124.541 19.5696 123.282 20.0816C122.023 20.5714 121.095 20.193 120.742 19.6809C120.455 19.3024 119.859 18.0779 120.985 16.6976C122.133 15.3173 125.976 15.2282 125.976 15.2282L125.424 18.1892ZM143.247 6.01113L142.342 10.731L142.143 10.9314C141.878 10.8868 141.569 10.8423 141.171 10.8423C139.957 10.8423 138.234 11.243 136.887 13.0464L136.865 13.0686L135.009 22.8423L134.877 22.9536L130.835 23.0872L130.769 22.9536L133.949 6.54546L134.126 6.36735L138.123 5.96661L138.278 6.14471L137.814 8.5269L138.013 8.34879C138.852 7.59184 139.581 7.05752 140.42 6.58998C141.238 6.12245 142.055 5.87755 142.894 5.87755C142.982 5.87755 143.049 5.87755 143.137 5.87755L143.247 6.01113ZM164.847 10.1521C164.847 11.154 164.626 12.1781 164.405 13.18L162.528 22.82L162.373 22.9314L158.155 23.0872L158.045 22.9314C158.045 22.9314 160.209 12.2672 160.209 11.7551C160.209 11.2653 159.966 9.97403 158.619 9.97403C157.559 9.97403 156.477 11.0427 156.477 11.0427L154.202 22.82L154.069 22.9314L152.258 22.9981L150.624 23.0427L149.829 23.0649L149.785 22.9981L149.74 22.9091C149.74 22.9091 150.072 21.2839 150.469 19.2801H150.425C151.066 16.141 151.861 12.0445 151.861 11.7328C151.861 11.243 151.618 9.95176 150.271 9.95176C149.21 9.95176 148.128 11.0204 148.128 11.0204L145.853 22.7978L145.699 22.9091L145.036 22.9314L141.436 23.0427L141.348 22.9091L144.506 6.52319L144.661 6.36735L148.879 5.96661L149.056 6.14471L148.614 8.46011C148.614 8.46011 150.646 6.2115 153.23 6.16698C155.659 6.12245 156.145 8.46011 156.145 8.46011C156.145 8.46011 158.553 6.10018 161.115 6.16698C162.44 6.16698 164.847 6.74583 164.847 10.1521ZM76.6592 7.23562C75.7316 6.56772 74.2518 6.23377 72.22 6.23377C71.204 6.23377 70.1881 6.32282 69.1942 6.52319C68.2887 6.7013 67.7145 6.83488 67.2286 6.99073L67.0961 7.1243L66.4335 10.5306L66.6544 10.6642C67.074 10.4638 67.6924 10.2189 68.5317 9.9295C69.3709 9.64008 70.1439 9.48423 70.8507 9.48423C71.8666 9.48423 72.6396 9.61781 73.1696 9.90724C73.7218 10.1967 74.0972 10.8423 74.0972 11.5547C74.0972 11.7328 74.0752 11.8887 74.0531 12.0223C74.031 12.1558 74.0089 12.2449 74.0089 12.3117V12.3785C74.0089 12.3785 73.6776 12.4007 73.3242 12.423C73.1034 12.4453 72.7942 12.4898 72.4629 12.5121C71.9108 12.5788 71.2703 12.6456 70.6961 12.757C69.3488 12.9796 65.5722 13.5807 64.4237 16.1187C63.2311 18.2115 63.4299 20.9944 64.6004 22.3302C65.0201 22.7978 65.6384 23.2653 66.4998 23.4211C66.544 23.4434 66.6765 23.4434 66.6986 23.4657C69.9672 23.9777 72.3083 21.1058 72.3083 21.1058L71.9549 22.8868L72.0874 23.0204L75.7537 22.8868L75.9083 22.7532L78.0727 11.7996C78.1168 11.577 78.161 11.2876 78.1831 10.9759C78.2052 10.6642 78.2273 10.397 78.2273 10.2189C78.2273 8.88312 77.5868 7.90353 76.6592 7.23562ZM72.8825 18.1892C72.8825 18.1892 71.9991 19.5696 70.7402 20.0816C69.4813 20.5714 68.5538 20.193 68.2004 19.6809C67.9133 19.3024 67.317 18.0779 68.4654 16.6976C69.6139 15.3173 73.4568 15.2282 73.4568 15.2282L72.8825 18.1892ZM64.0262 9.75139L63.8495 9.9295L61.3097 9.86271L60.1391 15.4286C59.9845 16.1187 59.6091 17.8776 59.6091 18.4341C59.6091 18.9685 59.8078 19.3247 60.0729 19.525C60.3379 19.7477 60.6913 19.8145 60.9784 19.8145C61.6851 19.8145 61.9281 19.6141 62.3919 19.436L62.4802 19.5028L61.8618 22.7087L61.641 22.9091C60.7796 23.0872 60.1391 23.243 59.2115 23.243C56.8705 23.2208 55.1478 22.4416 55.1478 19.6586C55.1478 18.3673 55.6778 16.0074 56.0533 14.2486L56.9809 9.81818L54.9932 9.88497L54.8828 9.70687L55.457 6.58998L55.6337 6.47867H57.6435L58.4606 2.38219L58.6152 2.20408C60.625 1.69202 61.2213 1.42486 63.0765 0.823749L63.1649 0.935066L62.5465 3.58442L61.9281 6.56772L64.5121 6.47867L64.5783 6.61224L64.0262 9.75139ZM54.5073 2.20408L53.7343 6.18924L53.5576 6.23377C53.2484 5.81076 53.0717 5.63265 52.63 5.2987C51.6803 4.56401 50.554 4.141 49.4055 4.141C48.5 4.141 47.7712 4.43043 47.2411 4.89796C46.7111 5.36549 46.424 6.0334 46.424 6.79035C46.424 8.19295 47.3736 8.88312 49.0742 9.90724L49.7368 10.2857C51.1724 11.2208 53.3809 12.6679 53.3809 15.9406C53.3809 19.6586 51.0178 23.3989 45.3197 23.4211C43.9283 23.4211 42.559 23.1763 41.2559 22.6865C40.3725 22.3525 39.9529 22.0408 39.4007 21.6401L39.3566 21.3729L40.1075 17.4768L40.2842 17.41C40.6154 17.8553 41.0572 18.2115 41.6976 18.6568C43.067 19.5696 44.37 19.6809 44.9442 19.6809C46.954 19.6809 48.5221 18.5232 48.5221 16.7421C48.5221 15.1391 47.2632 14.3377 45.9381 13.5584L45.0326 13.0019C43.597 12.0668 41.6093 10.7755 41.6093 7.56957C41.6093 6.32282 41.9627 4.56401 43.0449 3.09462C44.4804 1.17996 46.7332 0.489797 49.008 0.489797C51.9233 0.489797 53.6018 1.53618 54.3748 2.04824L54.5073 2.20408ZM13.4281 9.23933C14.5765 9.95176 16.1888 10.4193 18.0219 10.4193C19.8329 10.4193 21.4672 9.97403 22.6378 9.23933C23.8083 8.5269 24.4929 7.54731 24.4929 6.54546C24.4929 5.52134 23.8083 4.56401 22.6378 3.85158C21.4672 3.13915 19.855 2.69388 18.0219 2.69388C16.2108 2.69388 14.5765 3.13915 13.4281 3.85158C12.2796 4.56401 11.5949 5.52134 11.5949 6.54546C11.5949 7.54731 12.2575 8.5269 13.4281 9.23933ZM13.7152 14.7607C12.5446 14.0482 10.9324 13.603 9.09926 13.603C7.28824 13.603 5.65391 14.0482 4.50546 14.7607C3.35701 15.4731 2.67235 16.4304 2.67235 17.4323C2.67235 18.4564 3.35701 19.4137 4.50546 20.1484C5.65391 20.8609 7.26616 21.3061 9.09926 21.3284C10.9103 21.3284 12.5446 20.8609 13.7152 20.1484C14.8857 19.436 15.5704 18.4787 15.5704 17.4545C15.5704 16.4304 14.8857 15.4731 13.7152 14.7607ZM31.5162 14.7607C30.3456 14.0482 28.7113 13.603 26.9003 13.603C25.0893 13.603 23.4549 14.0482 22.3065 14.7607C21.158 15.4731 20.4734 16.4304 20.4734 17.4545C20.4734 18.4787 21.158 19.436 22.3065 20.1484C23.4549 20.8609 25.0672 21.3061 26.9003 21.3284C28.7113 21.3284 30.3456 20.8609 31.5162 20.1484C32.6867 19.436 33.3714 18.4787 33.3714 17.4545C33.3714 16.4304 32.6867 15.4731 31.5162 14.7607ZM26.8782 10.9314C26.061 10.9314 25.2659 11.0204 24.515 11.154C26.1714 9.97403 27.1874 8.32653 27.1874 6.52319C27.1874 2.89425 23.1016 0 18.0219 0C12.9422 0 8.9005 2.89425 8.9005 6.52319C8.9005 8.32653 9.89435 9.95176 11.5287 11.154C10.7557 10.9981 9.96061 10.9314 9.12136 10.9314C4.04167 10.9314 0 13.8256 0 17.4323C0 21.0612 4.01957 24 9.09926 24C13.428 24 17.028 21.8627 18.0219 19.013C18.9936 21.885 22.5494 24 26.8561 24C31.9358 24 36.0437 21.0612 36.0437 17.4323C36.0437 13.8033 31.9579 10.9314 26.8782 10.9314ZM10.5569 6.52319C10.5569 4.89796 11.7937 3.78479 12.5225 3.27273C13.9581 2.24861 15.9237 1.69202 18.0219 1.69202C20.1421 1.69202 22.1077 2.24861 23.5433 3.27273C24.2721 3.78479 25.5089 4.89796 25.531 6.52319C25.5089 9.23933 22.0414 11.4212 17.9998 11.4212C15.9016 11.4212 13.9581 10.8646 12.5225 9.81818C11.2637 8.90538 10.5569 7.74768 10.5569 6.52319ZM9.09926 22.3302C7.00113 22.3302 5.0576 21.7737 3.62203 20.7273C2.38524 19.8367 1.65642 18.6568 1.65642 17.4545C1.65642 15.8293 2.89321 14.7161 3.62203 14.2041C5.0576 13.18 7.02322 12.6234 9.12136 12.6234C11.2416 12.6234 13.2072 13.18 14.6428 14.2263C15.3716 14.7384 16.6084 15.8516 16.6305 17.4768C16.6084 20.1484 13.1409 22.3302 9.09926 22.3302ZM18.0219 15.8738C17.6243 14.7161 16.8072 13.692 15.6808 12.8683C16.4096 13.0019 17.2047 13.0909 17.9998 13.0909C18.8169 13.0909 19.612 13.0241 20.385 12.8683C19.2366 13.6698 18.4194 14.7161 18.0219 15.8738ZM26.8561 22.3302C24.758 22.3302 22.8144 21.7737 21.3789 20.7273C20.12 19.8367 19.4132 18.6568 19.4132 17.4545C19.4132 15.8293 20.65 14.7161 21.3789 14.2041C22.8144 13.18 24.7801 12.6234 26.8782 12.6234C28.9984 12.6234 30.964 13.18 32.4217 14.2263C33.1505 14.7384 34.3873 15.8516 34.3873 17.4768C34.3652 20.1484 30.8978 22.3302 26.8561 22.3302Z" fill="var(--fill-0, white)"/>
<g id="Group_2">
<path id="Vector_2" d="M171.43 9.43968C171.408 10.8868 170.37 11.9777 169.023 11.9554C167.676 11.9332 166.638 10.8423 166.638 9.39515C166.66 7.92576 167.676 6.85712 169.067 6.85712C170.414 6.87938 171.43 7.99255 171.43 9.43968ZM166.947 9.39515C166.947 10.6419 167.852 11.6438 169.001 11.666C170.149 11.666 171.099 10.6864 171.099 9.43968C171.099 8.83857 170.878 8.23745 170.525 7.83671C170.171 7.43597 169.597 7.19107 169.067 7.19107C167.852 7.1688 166.969 8.12613 166.947 9.39515ZM168.935 7.99255C169.244 7.99255 169.376 8.01481 169.553 8.05934C169.862 8.17066 170.039 8.46009 170.039 8.77177C170.039 9.12799 169.818 9.39515 169.465 9.50647L170.039 10.8868H169.641L169.111 9.57326H169.089H168.846H168.581H168.537L168.515 10.8645H168.14L168.162 7.97029L168.935 7.99255ZM168.89 9.26157C169.244 9.26157 169.376 9.23931 169.487 9.15025C169.597 9.0612 169.663 8.92762 169.663 8.77177C169.663 8.5714 169.575 8.41556 169.398 8.34877C169.288 8.30424 169.133 8.28198 168.824 8.28198H168.515V9.26157H168.89Z" fill="var(--fill-0, white)"/>
</g>
</g>
</svg>
