<svg preserveAspectRatio="none" width="100%" height="100%" overflow="visible" style="display: block;" viewBox="0 0 105.217 20" fill="none" xmlns="http://www.w3.org/2000/svg">
<g id="sunrun_logo.svg" clip-path="url(#clip0_0_9)">
<path id="Vector" d="M0.000254313 16.3235L2.73407 13.6876C3.81099 15.1582 6.07554 16.3786 8.86469 16.3786C11.1292 16.3786 12.7308 15.574 12.7308 13.9094C12.7308 9.69215 0.192825 13.3267 0.662673 5.86301H0.690345C3.50718 9.41413 16.8736 5.72399 16.8736 13.7704C16.8736 17.544 13.7253 19.9853 8.78224 19.9853C4.83316 19.9853 1.54703 18.4869 0.000254313 16.323V16.3235ZM8.78224 0.0094762C12.842 0.0094762 15.272 1.28548 16.9013 3.42218L14.1951 6.03038C13.0075 4.67097 11.6268 3.6168 8.78224 3.6168C6.10322 3.6168 4.86081 4.44913 4.86081 5.78073C4.86081 6.08597 4.94382 6.41902 5.05396 6.61307V6.64085C3.894 6.52967 0.994165 6.05819 0.994165 4.11609C0.994165 2.17398 3.81099 0.0094762 8.78224 0.0094762ZM18.6965 13.6325V0.286918H22.7834V13.2161C22.7834 15.0748 23.5842 16.3791 25.4896 16.3791C27.5333 16.3791 30.4603 15.0197 33.0564 12.5506L37.0884 8.72197H37.1161V15.9082C37.1161 18.5442 35.5415 19.987 33.0564 19.987V13.1616C29.9909 17.9337 27.7264 19.987 24.385 19.987C20.7397 19.987 18.696 17.7119 18.696 13.6331L18.6965 13.6325ZM44.6833 3.61623C42.6397 3.61623 39.7125 4.97564 37.1167 7.44481L33.0844 11.3012H33.0567V4.08715C33.0567 1.45115 34.6313 0.00834147 37.1167 0.00834147V6.83375C40.1819 2.06278 42.4465 0.0094762 45.7879 0.0094762C49.4333 0.0094762 51.477 2.28462 51.477 6.36342V19.709H47.3902V6.77928C47.3902 4.92061 46.5892 3.61623 44.6839 3.61623H44.6833ZM54.0177 0.286918H63.6004C67.6327 0.286918 70.4771 1.75753 70.4771 5.00342C70.4771 7.69502 68.3509 9.66493 64.374 9.83117V9.80336C65.4786 9.24848 66.3349 8.13872 66.3349 6.6681C66.3349 4.8094 65.0095 3.75467 63.0762 3.75467H58.1057V19.7085H54.0189V0.286918H54.0177ZM59.099 10.6635V10.6357H64.0421C69.0403 10.6357 70.3387 12.7996 70.3387 15.5468V19.7085H66.2519V16.5454C66.2519 13.4101 64.3463 11.7177 59.099 10.6635ZM72.4377 13.6325V0.286918H76.5248V13.2161C76.5248 15.0748 77.3255 16.3791 79.2307 16.3791C81.2744 16.3791 84.2015 15.0197 86.7974 12.5506L90.8297 8.72197H90.8574V15.9082C90.8574 18.5442 89.2834 19.987 86.7974 19.987V13.1616C83.7322 17.9337 81.4676 19.987 78.1262 19.987C74.4808 19.987 72.4371 17.7119 72.4371 13.6331L72.4377 13.6325ZM98.4246 3.61623C96.3809 3.61623 93.4538 4.97564 90.858 7.44481L86.8257 11.3012H86.798V4.08715C86.798 1.45115 88.372 0.00834147 90.858 0.00834147V6.83375C93.9226 2.06278 96.1871 0.0094762 99.5286 0.0094762C103.174 0.0094762 105.218 2.28462 105.218 6.36342V19.709H101.131V6.77928C101.131 4.92061 100.33 3.61623 98.4246 3.61623Z" fill="var(--fill-0, white)"/>
</g>
<defs>
<clipPath id="clip0_0_9">
<rect width="105.217" height="20" fill="white"/>
</clipPath>
</defs>
</svg>
