<svg preserveAspectRatio="none" width="100%" height="100%" overflow="visible" style="display: block;" viewBox="0 0 105.217 20" fill="none" xmlns="http://www.w3.org/2000/svg">
<g id="sunrun_logo.svg" clip-path="url(#clip0_0_50)">
<path id="Vector" d="M0 16.3235L2.73382 13.6875C3.81074 15.1581 6.07528 16.3785 8.86444 16.3785C11.129 16.3785 12.7305 15.574 12.7305 13.9094C12.7305 9.69211 0.19257 13.3267 0.662419 5.86297H0.690091C3.50692 9.41409 16.8733 5.72394 16.8733 13.7703C16.8733 17.5439 13.725 19.9853 8.78199 19.9853C4.8329 19.9853 1.54678 18.4869 0 16.3229V16.3235ZM8.78199 0.00943551C12.8418 0.00943551 15.2718 1.28544 16.901 3.42214L14.1949 6.03034C13.0073 4.67093 11.6265 3.61676 8.78199 3.61676C6.10296 3.61676 4.86055 4.44909 4.86055 5.78069C4.86055 6.08593 4.94357 6.41897 5.0537 6.61303V6.64081C3.89375 6.52963 0.993911 6.05815 0.993911 4.11605C0.993911 2.17394 3.81074 0.00943551 8.78199 0.00943551ZM18.6963 13.6325V0.286878H22.7832V13.216C22.7832 15.0747 23.5839 16.3791 25.4893 16.3791C27.533 16.3791 30.46 15.0197 33.0562 12.5505L37.0882 8.72193H37.1159V15.9082C37.1159 18.5442 35.5413 19.987 33.0562 19.987V13.1615C29.9906 17.9337 27.7262 19.987 24.3847 19.987C20.7394 19.987 18.6957 17.7118 18.6957 13.6331L18.6963 13.6325ZM44.6831 3.61619C42.6394 3.61619 39.7123 4.9756 37.1164 7.44477L33.0841 11.3012H33.0565V4.08711C33.0565 1.45111 34.631 0.00830078 37.1164 0.00830078V6.83371C40.1817 2.06274 42.4462 0.00943551 45.7877 0.00943551C49.433 0.00943551 51.4767 2.28458 51.4767 6.36338V19.709H47.3899V6.77924C47.3899 4.92057 46.589 3.61619 44.6837 3.61619H44.6831ZM54.0175 0.286878H63.6001C67.6324 0.286878 70.4768 1.75749 70.4768 5.00338C70.4768 7.69498 68.3507 9.66489 64.3737 9.83113V9.80332C65.4783 9.24844 66.3347 8.13868 66.3347 6.66806C66.3347 4.80936 65.0092 3.75463 63.076 3.75463H58.1054V19.7084H54.0187V0.286878H54.0175ZM59.0987 10.6634V10.6357H64.0418C69.04 10.6357 70.3384 12.7996 70.3384 15.5468V19.7084H66.2516V16.5453C66.2516 13.4101 64.346 11.7176 59.0987 10.6634ZM72.4374 13.6325V0.286878H76.5245V13.216C76.5245 15.0747 77.3252 16.3791 79.2305 16.3791C81.2742 16.3791 84.2013 15.0197 86.7971 12.5505L90.8294 8.72193H90.8571V15.9082C90.8571 18.5442 89.2831 19.987 86.7971 19.987V13.1615C83.7319 17.9337 81.4674 19.987 78.1259 19.987C74.4805 19.987 72.4369 17.7118 72.4369 13.6331L72.4374 13.6325ZM98.4243 3.61619C96.3807 3.61619 93.4535 4.9756 90.8577 7.44477L86.8254 11.3012H86.7977V4.08711C86.7977 1.45111 88.3717 0.00830078 90.8577 0.00830078V6.83371C93.9223 2.06274 96.1869 0.00943551 99.5283 0.00943551C103.174 0.00943551 105.217 2.28458 105.217 6.36338V19.709H101.131V6.77924C101.131 4.92057 100.33 3.61619 98.4243 3.61619Z" fill="var(--fill-0, black)"/>
</g>
<defs>
<clipPath id="clip0_0_50">
<rect width="105.217" height="20" fill="white"/>
</clipPath>
</defs>
</svg>
