<svg preserveAspectRatio="none" width="100%" height="100%" overflow="visible" style="display: block;" viewBox="0 0 167.853 24" fill="none" xmlns="http://www.w3.org/2000/svg">
<g id="Group">
<g id="Group_2">
<path id="Vector" d="M154.117 13.6007L156.902 6.30678L159.688 13.6007H154.117ZM159.784 2.16636H154.02L145.952 21.9778H150.947L152.772 17.1393H161.009L162.858 21.9778H167.853L159.784 2.16636ZM119.08 18.5114C115.814 18.5114 113.196 15.5746 113.196 11.9397C113.196 8.30477 115.838 5.36796 119.08 5.36796C122.322 5.36796 124.963 8.30477 124.963 11.9397C124.987 15.5746 122.346 18.5114 119.08 18.5114ZM119.08 1.46826C113.316 1.46826 108.634 6.16234 108.634 11.9397C108.634 17.717 113.316 22.4111 119.08 22.4111C124.843 22.4111 129.526 17.7411 129.526 11.9637C129.526 6.16234 124.843 1.46826 119.08 1.46826ZM77.8954 18.5114C74.6535 18.5114 72.012 15.5746 72.012 11.9397C72.012 8.30477 74.6535 5.36796 77.8954 5.36796C81.1614 5.36796 83.8029 8.30477 83.8029 11.9397C83.8029 15.5746 81.1614 18.5114 77.8954 18.5114ZM77.8954 1.46826C72.132 1.46826 67.4733 6.16234 67.4733 11.9397C67.4733 17.717 72.132 22.4111 77.8954 22.4111C83.6588 22.4111 88.3416 17.7411 88.3416 11.9637C88.3416 6.16234 83.6588 1.46826 77.8954 1.46826ZM103.711 2.16636L98.5957 10.1824L93.4807 2.16636H88.4857L96.4104 14.5876V21.9778H100.805V14.5876L108.73 2.16636C108.706 2.16636 103.711 2.16636 103.711 2.16636ZM147.008 2.16636H130.126V5.96977H136.394V21.9778H140.789V5.94569H147.008V2.16636ZM49.6547 5.94569H55.9224V21.9537H60.317V5.94569H66.5367V2.16636H49.6307V5.94569H49.6547Z" fill="var(--fill-0, white)"/>
</g>
<path id="Vector_2" d="M26.8479 1.17954C24.5425 0.433299 21.6848 0 18.587 0C15.4892 0 12.6315 0.433299 10.3261 1.17954C4.20249 3.15346 0 7.24574 0 11.9639C0 18.6078 8.30892 24 18.563 24C28.8171 24 37.126 18.6078 37.126 11.9639C37.174 7.24574 32.9715 3.15346 26.8479 1.17954ZM18.587 18.8485C17.0501 18.8485 15.8014 15.8395 15.7293 12.0361C16.6418 12.1083 17.6024 12.1565 18.587 12.1565C19.5716 12.1565 20.5081 12.1083 21.4447 12.0361C21.3726 15.8154 20.1239 18.8485 18.587 18.8485ZM15.9214 9.05115C16.3297 6.37914 17.3623 4.5015 18.587 4.5015C19.7877 4.5015 20.8203 6.37914 21.2526 9.05115C20.4121 9.12337 19.4995 9.17151 18.587 9.17151C17.6745 9.17151 16.7859 9.14744 15.9214 9.05115ZM22.8855 8.85857C22.2612 4.67001 20.5802 1.68506 18.587 1.68506C16.5938 1.68506 14.9128 4.67001 14.2885 8.85857C10.5182 8.25677 7.87666 6.9328 7.87666 5.3681C7.87666 3.24975 12.6555 1.54062 18.563 1.54062C24.4705 1.54062 29.2493 3.24975 29.2493 5.3681C29.2973 6.9328 26.6558 8.28084 22.8855 8.85857ZM2.73762 11.5306C2.73762 9.48445 3.53009 7.58275 4.87488 5.94584C4.85087 6.0662 4.85087 6.18656 4.85087 6.28285C4.85087 8.85857 8.69314 11.0251 14.0483 11.8195C14.0483 12.012 14.0483 12.2046 14.0483 12.3972C14.0483 17.1635 15.3691 21.2076 17.1942 22.6038C9.07737 22.1224 2.73762 17.3561 2.73762 11.5306ZM20.0038 22.6038C21.8289 21.2076 23.1497 17.1635 23.1497 12.3972C23.1497 12.2046 23.1497 12.012 23.1497 11.8195C28.5049 11.0251 32.3471 8.8345 32.3471 6.28285C32.3471 6.16249 32.3471 6.04213 32.3231 5.94584C33.6919 7.58275 34.4604 9.50853 34.4604 11.5306C34.4604 17.3561 28.0966 22.1224 20.0038 22.6038Z" fill="var(--fill-0, white)"/>
</g>
</svg>
