<svg preserveAspectRatio="none" width="100%" height="100%" overflow="visible" style="display: block;" viewBox="0 0 195.828 28" fill="none" xmlns="http://www.w3.org/2000/svg">
<g id="Group">
<g id="Group_2">
<path id="Vector" d="M179.802 15.8676L183.052 7.35808L186.302 15.8676H179.802ZM186.414 2.52759H179.69L170.277 25.6409H176.104L178.233 19.996H187.843L190 25.6409H195.828L186.414 2.52759ZM138.926 21.5968C135.116 21.5968 132.062 18.1705 132.062 13.9298C132.062 9.68908 135.144 6.2628 138.926 6.2628C142.708 6.2628 145.79 9.68908 145.79 13.9298C145.818 18.1705 142.736 21.5968 138.926 21.5968ZM138.926 1.71315C132.202 1.71315 126.739 7.18958 126.739 13.9298C126.739 20.67 132.202 26.1464 138.926 26.1464C145.65 26.1464 151.113 20.6981 151.113 13.9579C151.113 7.18958 145.65 1.71315 138.926 1.71315ZM90.8777 21.5968C87.0954 21.5968 84.0136 18.1705 84.0136 13.9298C84.0136 9.68908 87.0954 6.2628 90.8777 6.2628C94.6879 6.2628 97.7697 9.68908 97.7697 13.9298C97.7697 18.1705 94.6879 21.5968 90.8777 21.5968ZM90.8777 1.71315C84.1537 1.71315 78.7185 7.18958 78.7185 13.9298C78.7185 20.67 84.1537 26.1464 90.8777 26.1464C97.6016 26.1464 103.065 20.6981 103.065 13.9579C103.065 7.18958 97.6016 1.71315 90.8777 1.71315ZM120.995 2.52759L115.028 11.8796L109.06 2.52759H103.233L112.478 17.0191V25.6409H117.605V17.0191L126.851 2.52759C126.823 2.52759 120.995 2.52759 120.995 2.52759ZM171.509 2.52759H151.814V6.9649H159.126V25.6409H164.253V6.93682H171.509V2.52759ZM57.9302 6.93682H65.2425V25.6128H70.3695V6.93682H77.6258V2.52759H57.9021V6.93682H57.9302Z" fill="var(--fill-0, black)"/>
</g>
<path id="Vector_2" d="M31.3225 1.37613C28.6329 0.505516 25.299 0 21.6848 0C18.0707 0 14.7367 0.505516 12.0471 1.37613C4.9029 3.67904 0 8.45336 0 13.9579C0 21.7091 9.69374 28 21.6568 28C33.6199 28 43.3136 21.7091 43.3136 13.9579C43.3697 8.45336 38.4668 3.67904 31.3225 1.37613ZM21.6848 21.99C19.8918 21.99 18.4349 18.4794 18.3509 14.0421C19.4155 14.1264 20.5362 14.1825 21.6848 14.1825C22.8335 14.1825 23.9262 14.1264 25.0188 14.0421C24.9348 18.4514 23.4779 21.99 21.6848 21.99ZM18.575 10.5597C19.0513 7.44233 20.256 5.25175 21.6848 5.25175C23.0857 5.25175 24.2904 7.44233 24.7947 10.5597C23.8141 10.6439 22.7495 10.7001 21.6848 10.7001C20.6202 10.7001 19.5836 10.672 18.575 10.5597ZM26.6998 10.335C25.9714 5.44834 24.0102 1.9659 21.6848 1.9659C19.3595 1.9659 17.3983 5.44834 16.6699 10.335C12.2713 9.6329 9.18944 8.08826 9.18944 6.26279C9.18944 3.79137 14.7647 1.79739 21.6568 1.79739C28.5489 1.79739 34.1242 3.79137 34.1242 6.26279C34.1802 8.08826 31.0984 9.66098 26.6998 10.335ZM3.19389 13.4524C3.19389 11.0652 4.11844 8.84654 5.68737 6.93681C5.65935 7.07723 5.65935 7.21765 5.65935 7.32999C5.65935 10.335 10.142 12.8626 16.3897 13.7894C16.3897 14.014 16.3897 14.2387 16.3897 14.4634C16.3897 20.0241 17.9306 24.7422 20.0599 26.3711C10.5903 25.8094 3.19389 20.2487 3.19389 13.4524ZM23.3378 26.3711C25.4671 24.7422 27.008 20.0241 27.008 14.4634C27.008 14.2387 27.008 14.014 27.008 13.7894C33.2557 12.8626 37.7383 10.3069 37.7383 7.32999C37.7383 7.18957 37.7383 7.04915 37.7103 6.93681C39.3073 8.84654 40.2038 11.0933 40.2038 13.4524C40.2038 20.2487 32.7794 25.8094 23.3378 26.3711Z" fill="var(--fill-0, black)"/>
</g>
</svg>
