<svg width="171" height="70" fill="none" xmlns="http://www.w3.org/2000/svg"><path d="M18.113 44.388l-3.772 9.318h.78l1.106-2.769h4.585l1.106 2.77h.845l-3.772-9.319h-.878zm-1.626 5.865l2.049-5.05 2.016 5.05h-4.065zM90.69 44.974c.716 0 1.301.163 1.756.522.423.358.716.847.846 1.498h.78c-.13-.847-.52-1.53-1.105-2.02-.586-.488-1.366-.716-2.276-.716-1.204 0-2.18.456-2.927 1.335-.748.88-1.138 2.02-1.138 3.454 0 1.434.39 2.607 1.138 3.486.748.88 1.723 1.336 2.927 1.336.91 0 1.69-.228 2.276-.717.585-.488.943-1.173 1.105-2.02h-.78c-.13.652-.39 1.14-.846 1.499-.455.358-1.04.521-1.755.521-1.008 0-1.789-.358-2.374-1.108-.585-.749-.878-1.726-.878-2.997 0-1.238.293-2.248.878-2.965.585-.75 1.366-1.108 2.374-1.108zM100.413 44.258c-1.203 0-2.211.423-2.992 1.335-.748.88-1.138 2.02-1.138 3.454 0 1.434.39 2.607 1.138 3.486.748.88 1.756 1.336 2.992 1.336 1.203 0 2.211-.456 2.959-1.336.748-.912 1.138-2.052 1.138-3.486 0-1.4-.39-2.574-1.138-3.453-.748-.88-1.724-1.336-2.959-1.336zm2.406 7.786c-.585.75-1.398 1.108-2.406 1.108-1.008 0-1.821-.358-2.439-1.108-.585-.749-.878-1.726-.878-2.997 0-1.27.293-2.248.878-2.997.585-.75 1.398-1.108 2.439-1.108 1.008 0 1.821.358 2.406 1.108.585.749.878 1.759.878 2.997 0 1.27-.293 2.248-.878 2.998zM111.859 52.696h-.033l-3.056-8.308h-1.334v9.318h.781v-8.634h.032l3.22 8.634h.715l3.252-8.634v8.634h.747v-9.318h-1.268l-3.056 8.308zM125.256 45.072c-.553-.456-1.334-.684-2.342-.684h-3.219v9.318h.781v-3.91h2.438c1.041 0 1.789-.227 2.342-.684.552-.488.812-1.14.812-2.02 0-.88-.26-1.53-.812-2.02zm-.521 3.52c-.39.325-.975.488-1.756.488h-2.471v-3.975h2.471c.781 0 1.366.196 1.756.521.39.326.586.815.586 1.467 0 .651-.196 1.172-.586 1.498zM131.141 44.388l-3.772 9.318h.781l1.105-2.769h4.618l1.105 2.77h.846l-3.805-9.319h-.878zm-1.593 5.865l2.016-5.05h.032l2.016 5.05h-4.064zM144.636 52.273h-.033l-5.3-7.885h-1.008v9.318h.78v-8.34h.033l5.56 8.34h.748v-9.318h-.78v7.885zM154.813 44.42l-2.991 4.692h-.033l-3.056-4.691h-.878l3.512 5.408v3.877h.78V49.83l3.544-5.408h-.878zM31.803 48.233c-1.659-.49-2.146-.782-2.146-1.434 0-.456.39-.88 1.43-.88.618 0 1.496.13 2.211.815.066.065.163 0 .195-.033l.944-.977c.065-.065.032-.13-.033-.196-.715-.977-2.016-1.27-3.284-1.27-1.919 0-3.382.88-3.382 2.574 0 1.726 1.138 2.476 3.284 3.127 1.236.359 1.919.62 1.919 1.304 0 .716-.78 1.042-1.756 1.042-1.008 0-1.919-.195-2.699-1.01-.033-.065-.13-.032-.195.033l-.976 1.107v.098s0 .033.033.065c.878 1.01 2.276 1.401 3.707 1.401 1.983 0 3.707-.88 3.74-2.802 0-1.791-1.139-2.41-2.992-2.964zM44.322 44.617h-1.659c-.032 0-.065 0-.097.032-.033.033-.065.065-.065.098v5.539c0 1.173-.423 1.955-1.886 1.955-1.398 0-1.886-.685-1.886-1.923v-5.571c0-.065-.033-.163-.13-.163h-1.626c-.033 0-.065.033-.098.065 0 .033-.032.098-.032.13v5.833c0 2.215 1.43 3.388 3.772 3.388 2.34 0 3.837-1.206 3.837-3.421v-5.832c0-.033 0-.065-.033-.098-.032 0-.065-.032-.097-.032zM50.63 44.42c-2.374 0-3.935 1.174-3.902 3.422v5.832c0 .032 0 .065.032.098.033 0 .065.032.098.032h1.69c.033 0 .066 0 .098-.032.033-.033.065-.066.065-.098v-5.539c0-1.173.39-1.955 1.886-1.955 1.366 0 1.886.684 1.886 1.922v5.572c0 .065.065.163.163.163h1.658c.033 0 .065-.033.098-.065 0-.033.032-.098.032-.13v-5.833c0-2.215-1.43-3.388-3.804-3.388zM71.245 44.617h-1.658c-.032 0-.065 0-.097.032-.033.033-.066.065-.066.098v5.539c0 1.173-.422 1.955-1.886 1.955-1.398 0-1.885-.685-1.885-1.923v-5.571c0-.065-.033-.163-.13-.163h-1.626c-.033 0-.065.033-.098.065a.247.247 0 00-.065.13v5.833c0 2.215 1.43 3.388 3.772 3.388 2.341 0 3.87-1.206 3.87-3.421v-5.832c0-.033 0-.065-.033-.098-.032 0-.065-.032-.098-.032zM77.554 44.42c-2.342 0-3.87 1.174-3.87 3.422v5.832c0 .032 0 .065.033.098.032 0 .065.032.097.032h1.659c.032 0 .065 0 .097-.032.033-.033.065-.066.065-.098v-5.539c0-1.173.423-1.955 1.886-1.955 1.398 0 1.886.684 1.886 1.922v5.572c0 .065.033.163.13.163h1.626c.032 0 .065-.033.097-.065a.247.247 0 00.066-.13v-5.833c0-2.215-1.431-3.388-3.772-3.388zM61.978 44.584c-.065-.065-.13-.065-.195-.098h-.065c-.455 0-.65-.032-.813-.032-2.374 0-3.902 1.205-3.902 3.42v5.832c0 .033.033.066.033.098.032.033.065.033.097.033h1.658c.033 0 .066 0 .098-.033.032-.032.032-.065.065-.098v-5.538c0-1.206.423-1.955 1.919-1.955h.91c.065 0 .163-.033.195-.098.033-.032.033-.065.065-.098.033-.032.033-.065.033-.097v-1.14c0-.033 0-.066-.033-.098 0-.033-.032-.066-.065-.098z" fill="#01193F"/><path d="M109.323 23.86l-2.894-.683c-1.691-.359-2.537-1.532-2.537-2.9 0-1.857 1.529-3.226 3.74-3.226 2.699 0 3.902 2.02 4.064 3.389l2.309-.684c-.488-2.216-2.179-4.92-6.601-4.92-3.544 0-6.438 2.704-6.438 5.767 0 2.9 2.048 4.594 4.747 5.278l3.057.684c1.886.522 2.894 1.695 2.894 3.063 0 1.694-1.366 3.063-4.065 3.063-3.056 0-4.585-2.02-4.747-4.236l-2.537.847c.326 2.705 2.537 5.767 7.284 5.767 4.26 0 6.796-2.704 6.796-5.767 0-2.737-1.853-4.757-5.072-5.441zM122.362 20.961c-3.902 0-6.796 2.9-6.796 6.973s2.894 7.135 6.796 7.135 6.796-3.062 6.796-7.135-2.894-6.973-6.796-6.973zm.032 11.73c-2.211 0-4.064-1.694-4.064-4.757 0-3.063 1.853-4.757 4.064-4.757 2.211 0 4.065 1.694 4.065 4.757 0 3.03-1.886 4.757-4.065 4.757zM133.547 14.542h-2.536v20.039h2.536V14.542zM148.31 21.32h-2.536v1.857c-.488-1.043-1.691-2.216-4.065-2.216-3.739 0-6.276 3.226-6.276 6.973 0 3.91 2.374 7.135 6.276 7.135 2.016 0 3.382-1.01 4.065-2.378 0 .847.162 1.531.162 1.89h2.537c0-.163-.163-1.206-.163-2.379V21.32zm-6.438 11.566c-2.374 0-3.74-2.052-3.74-4.757 0-2.737 1.529-4.594 3.902-4.594 2.374 0 3.74 1.89 3.74 4.594 0 2.705-1.529 4.757-3.902 4.757zM157.154 21.19c-1.203 0-2.893.488-3.902 2.54v-2.378h-2.536v13.229h2.536v-6.615c0-2.9 1.334-4.072 3.545-4.072H158v-2.705h-.846zM75.245 18.973c-2.049 0-4.065.848-5.268 2.379h-.162v-2.053h-5.43v15.282h5.43v-7.82c0-2.542 1.528-3.226 2.894-3.226 1.853 0 2.698 1.531 2.698 2.9v8.146h5.43v-9.515c0-3.225-2.048-5.93-5.592-6.093zM21.17 28.13l-3.577-8.83H12l6.796 15.28h4.91l6.6-15.28h-5.592l-3.544 8.83zM46.793 28.13l-3.577-8.83h-5.593l6.6 15.28h4.911l6.6-15.28h-5.592l-3.35 8.83zM92.87 19.462h-2.7v-4.757h-5.43v4.757h-2.536v4.432h2.536V34.58h5.43V23.894h2.7v-4.432zM95.665 35.036a2.8 2.8 0 002.797-2.801 2.8 2.8 0 00-2.797-2.802 2.8 2.8 0 00-2.796 2.802 2.8 2.8 0 002.796 2.801zM59.312 17.604a2.8 2.8 0 002.796-2.802A2.8 2.8 0 0059.312 12a2.8 2.8 0 00-2.797 2.802 2.8 2.8 0 002.797 2.802zM62.01 19.3h-5.43v15.28h5.43V19.3zM33.949 17.604a2.8 2.8 0 002.796-2.802A2.8 2.8 0 0033.949 12a2.8 2.8 0 00-2.797 2.802 2.8 2.8 0 002.797 2.802zM36.68 19.3h-5.43v15.28h5.43V19.3z" fill="#0073E0"/></svg>