<svg preserveAspectRatio="none" width="100%" height="100%" overflow="visible" style="display: block;" viewBox="0 0 26.4793 18.5324" fill="none" xmlns="http://www.w3.org/2000/svg">
<g id="Group">
<g id="Mask group">
<mask id="mask0_0_16" style="mask-type:luminance" maskUnits="userSpaceOnUse" x="0" y="-1" width="27" height="20">
<g id="Group_2">
<path id="Vector" d="M7.81249e-05 -0.000148556H26.4794V18.5322H7.81249e-05V-0.000148556Z" fill="var(--fill-0, white)"/>
</g>
</mask>
<g mask="url(#mask0_0_16)">
<path id="Vector_2" fill-rule="evenodd" clip-rule="evenodd" d="M11.0143 2.02188C11.8684 1.13205 13.0577 0.57989 14.3729 0.57989C16.1211 0.57989 17.6466 1.55477 18.4587 3.00221C19.1853 2.67753 19.9724 2.51019 20.7682 2.51117C23.9216 2.51117 26.478 5.08988 26.478 8.27105C26.478 11.4522 23.9216 14.031 20.7682 14.031C20.3831 14.031 20.0071 13.9923 19.6434 13.9189C18.9282 15.1946 17.5649 16.0567 16.0005 16.0567C15.3677 16.0576 14.7431 15.9138 14.1744 15.6364C13.4494 17.3422 11.7596 18.5382 9.79089 18.5382C7.74021 18.5382 5.99246 17.2408 5.32207 15.4212C5.02328 15.4843 4.71872 15.516 4.41336 15.5158C1.97186 15.5158 -0.0071983 13.516 -0.0071983 11.0492C-0.0071983 9.39589 0.881856 7.95244 2.20327 7.18026C1.92331 6.53558 1.77924 5.84011 1.78006 5.13727C1.78006 2.3001 4.08317 0 6.92414 0C8.59209 0 10.0745 0.792909 11.0143 2.02188Z" fill="var(--fill-0, #00A1E0)"/>
</g>
</g>
<path id="Vector_3" fill-rule="evenodd" clip-rule="evenodd" d="M3.82736 9.61349C3.81072 9.65689 3.8333 9.66594 3.83865 9.67363C3.88838 9.70964 3.93888 9.73572 3.98988 9.76501C4.25992 9.90796 4.51517 9.9499 4.78181 9.9499C5.32511 9.9499 5.66259 9.66108 5.66259 9.19592V9.18677C5.66259 8.75665 5.28161 8.60036 4.92457 8.48758L4.87796 8.47249C4.60869 8.38511 4.37631 8.30949 4.37631 8.13209V8.12304C4.37631 7.97113 4.51216 7.85952 4.72265 7.85952C4.95668 7.85952 5.23403 7.93727 5.41289 8.03604C5.41289 8.03604 5.46563 8.0701 5.4848 8.01921C5.49522 7.99167 5.58562 7.74819 5.59525 7.72182C5.60557 7.69331 5.58747 7.6718 5.56888 7.66071C5.36462 7.53624 5.08251 7.45158 4.79047 7.45158L4.73627 7.45177C4.239 7.45177 3.89178 7.75247 3.89178 8.18279V8.19204C3.89178 8.64552 4.27481 8.79295 4.6336 8.89542L4.69121 8.91332C4.9525 8.99351 5.17817 9.0628 5.17817 9.24662V9.25577C5.17817 9.42412 5.03152 9.54917 4.79534 9.54917C4.70377 9.54917 4.41144 9.54761 4.09556 9.34783C4.05731 9.32554 4.03552 9.30949 4.00603 9.29148C3.99046 9.28204 3.95153 9.26501 3.9346 9.316L3.82736 9.61349ZM11.7808 9.61349C11.7641 9.65689 11.7867 9.66594 11.7923 9.67363C11.8418 9.70964 11.8924 9.73572 11.9433 9.76501C12.2134 9.90796 12.4687 9.9499 12.7352 9.9499C13.2785 9.9499 13.6161 9.66108 13.6161 9.19592V9.18677C13.6161 8.75665 13.2352 8.60036 12.8781 8.48758L12.8315 8.47249C12.5622 8.38511 12.3297 8.30949 12.3297 8.13209V8.12304C12.3297 7.97113 12.4657 7.85952 12.6763 7.85952C12.9102 7.85952 13.1874 7.93727 13.3663 8.03604C13.3663 8.03604 13.419 8.0701 13.4383 8.01921C13.4486 7.99167 13.5391 7.74819 13.5487 7.72182C13.5591 7.69331 13.5409 7.6718 13.5224 7.66071C13.318 7.53624 13.036 7.45158 12.744 7.45158L12.6897 7.45177C12.1925 7.45177 11.8453 7.75247 11.8453 8.18279V8.19204C11.8453 8.64552 12.2282 8.79295 12.5871 8.89542L12.6446 8.91332C12.906 8.99351 13.1317 9.0628 13.1317 9.24662V9.25577C13.1317 9.42412 12.9849 9.54917 12.7489 9.54917C12.6572 9.54917 12.3649 9.54761 12.0491 9.34783C12.0108 9.32554 11.9884 9.31017 11.9594 9.29148C11.9496 9.28525 11.9038 9.26735 11.8881 9.316L11.7808 9.61349ZM17.2104 8.70225C17.2104 8.965 17.1613 9.17247 17.065 9.31873C16.9692 9.46373 16.8247 9.53428 16.6232 9.53428C16.4216 9.53428 16.2779 9.46382 16.1837 9.31892C16.0886 9.17257 16.0404 8.965 16.0404 8.70225C16.0404 8.4397 16.0886 8.23291 16.1837 8.08811C16.2779 7.94457 16.4216 7.87489 16.6232 7.87489C16.8247 7.87489 16.9692 7.94467 17.065 8.0882C17.1615 8.23291 17.2104 8.4397 17.2104 8.70225ZM17.664 8.215C17.6194 8.06426 17.55 7.93163 17.4576 7.82098C17.3651 7.71004 17.248 7.62081 17.1093 7.55619C16.9707 7.49148 16.8072 7.45868 16.6232 7.45868C16.4392 7.45868 16.2756 7.49148 16.1369 7.55619C15.9983 7.62081 15.8812 7.71004 15.7886 7.82118C15.6964 7.93202 15.6268 8.06446 15.5823 8.215C15.538 8.36457 15.5156 8.52855 15.5156 8.70225C15.5156 8.87605 15.538 9.04012 15.5823 9.1895C15.6268 9.33994 15.6962 9.47248 15.7887 9.58352C15.8813 9.69465 15.9987 9.78311 16.1371 9.84617C16.2759 9.90923 16.4394 9.94134 16.6232 9.94134C16.8071 9.94134 16.9704 9.90923 17.1091 9.84617C17.2476 9.78311 17.3649 9.69465 17.4576 9.58352C17.55 9.47287 17.6194 9.34014 17.664 9.1895C17.7082 9.03983 17.7307 8.87586 17.7307 8.70225C17.7307 8.52874 17.7082 8.36467 17.664 8.215ZM21.3879 9.46392C21.373 9.41984 21.33 9.43648 21.33 9.43648C21.2642 9.46168 21.1941 9.48504 21.1192 9.49672C21.0436 9.50859 20.96 9.51452 20.8706 9.51452C20.6514 9.51452 20.4767 9.44923 20.352 9.32019C20.2268 9.19105 20.1564 8.98241 20.1572 8.70021C20.1579 8.44369 20.22 8.25042 20.3313 8.10309C20.4417 7.95673 20.6102 7.88161 20.8343 7.88161C21.0215 7.88161 21.1642 7.90331 21.3138 7.95021C21.3138 7.95021 21.3493 7.96569 21.3663 7.91888C21.4061 7.80862 21.4355 7.73019 21.478 7.60903C21.49 7.57449 21.4604 7.55989 21.4496 7.5557C21.3909 7.53274 21.252 7.49508 21.1472 7.47922C21.0492 7.46423 20.9347 7.45645 20.8069 7.45645C20.6164 7.45645 20.4466 7.48905 20.3014 7.55366C20.1565 7.61818 20.0336 7.70732 19.9362 7.81816C19.8388 7.92919 19.7647 8.06183 19.7156 8.21228C19.6665 8.36195 19.6416 8.52621 19.6416 8.7004C19.6416 9.07652 19.7431 9.38043 19.9433 9.60308C20.1442 9.82651 20.4455 9.93998 20.8387 9.93998C21.071 9.93998 21.3093 9.89298 21.481 9.82544C21.481 9.82544 21.5137 9.80968 21.4995 9.77153L21.3879 9.46392ZM22.1814 8.45031C22.2031 8.30424 22.2431 8.18289 22.3055 8.08811C22.3996 7.94457 22.5429 7.86545 22.7444 7.86545C22.946 7.86545 23.0789 7.94467 23.1746 8.0882C23.2379 8.18308 23.2655 8.30949 23.2763 8.4505L22.1814 8.45031ZM23.7082 8.12946C23.6695 7.98408 23.5744 7.83723 23.5118 7.77009C23.413 7.66363 23.3163 7.58908 23.2202 7.54792C23.0812 7.48884 22.9317 7.45849 22.7807 7.45868C22.5891 7.45868 22.415 7.49109 22.2738 7.55726C22.1324 7.62363 22.0136 7.71433 21.9204 7.82701C21.8271 7.93961 21.7571 8.07361 21.7125 8.22561C21.6677 8.37674 21.6451 8.54149 21.6451 8.71548C21.6451 8.8924 21.6686 9.05735 21.7147 9.20565C21.7613 9.35522 21.8362 9.4865 21.9372 9.59578C22.0381 9.70545 22.168 9.79148 22.3232 9.85142C22.4777 9.91127 22.6653 9.94231 22.8804 9.94163C23.324 9.94017 23.5572 9.8413 23.6536 9.78807C23.6706 9.77853 23.6867 9.76209 23.6666 9.7147L23.5662 9.43366C23.5508 9.39171 23.5084 9.4069 23.5084 9.4069C23.3983 9.44796 23.2425 9.52124 22.8782 9.52046C22.6402 9.52007 22.4638 9.44971 22.353 9.33985C22.2396 9.22745 22.184 9.06241 22.1745 8.82924L23.7093 8.83041C23.7093 8.83041 23.7498 8.83002 23.754 8.79051C23.7557 8.77416 23.8067 8.47522 23.7082 8.12946ZM9.88697 8.45031C9.90867 8.30424 9.94876 8.18289 10.011 8.08811C10.1052 7.94457 10.2483 7.86545 10.45 7.86545C10.6517 7.86545 10.7845 7.94467 10.8802 8.0882C10.9434 8.18308 10.971 8.30949 10.9818 8.4505L9.88697 8.45031ZM11.4137 8.12946C11.3752 7.98408 11.2799 7.83723 11.2174 7.77009C11.1187 7.66363 11.022 7.58908 10.9259 7.54792C10.7869 7.48887 10.6374 7.45852 10.4863 7.45868C10.2947 7.45868 10.1206 7.49109 9.97941 7.55726C9.83802 7.62363 9.7192 7.71433 9.62587 7.82701C9.53274 7.93961 9.46278 8.07361 9.41792 8.22561C9.37325 8.37674 9.35077 8.54149 9.35077 8.71548C9.35077 8.8924 9.37403 9.05735 9.42044 9.20565C9.46696 9.35522 9.54189 9.4865 9.64271 9.59578C9.74372 9.70545 9.87354 9.79148 10.0288 9.85142C10.1833 9.91127 10.3707 9.94231 10.5861 9.94163C11.0295 9.94017 11.2629 9.8413 11.3592 9.78807C11.3761 9.77853 11.3923 9.76209 11.3722 9.7147L11.2718 9.43366C11.2564 9.39171 11.2139 9.4069 11.2139 9.4069C11.104 9.44796 10.9482 9.52124 10.5837 9.52046C10.3458 9.52007 10.1694 9.44971 10.0585 9.33985C9.94526 9.22745 9.88949 9.06241 9.88006 8.82924L11.415 8.83041C11.415 8.83041 11.4555 8.83002 11.4596 8.79051C11.4613 8.77416 11.5123 8.47522 11.4137 8.12946ZM6.56887 9.45555C6.50864 9.40748 6.50027 9.3957 6.48032 9.36447C6.44986 9.31746 6.43429 9.25051 6.43429 9.16478C6.43429 9.03 6.47905 8.93288 6.57131 8.86768C6.57033 8.86788 6.70365 8.75266 7.01651 8.75675C7.15609 8.75922 7.29533 8.77109 7.43331 8.79226V9.49H7.4335C7.4335 9.49 7.23839 9.53194 7.01875 9.54518C6.70657 9.56396 6.5679 9.45526 6.56887 9.45555ZM7.17971 8.37674C7.11743 8.37216 7.03676 8.36993 6.94003 8.36993C6.80856 8.36993 6.68137 8.38627 6.56196 8.41839C6.44207 8.4507 6.33425 8.50071 6.24151 8.56698C6.14883 8.63319 6.07262 8.71983 6.01876 8.82019C5.96436 8.9215 5.93663 9.04051 5.93663 9.17393C5.93663 9.31007 5.96028 9.42801 6.00699 9.52435C6.05269 9.61987 6.12149 9.70249 6.20716 9.76472C6.2925 9.8268 6.3978 9.87234 6.51992 9.90018C6.6405 9.92772 6.77712 9.94163 6.9264 9.94163C7.08405 9.94163 7.24082 9.9284 7.39273 9.9028C7.52212 9.88051 7.65103 9.85546 7.77935 9.82768C7.83054 9.8159 7.88698 9.80043 7.88698 9.80043C7.92493 9.7908 7.92201 9.75022 7.92201 9.75022L7.92114 8.34637C7.92114 8.03848 7.83901 7.81037 7.67717 7.66869C7.51612 7.52768 7.27897 7.45645 6.97214 7.45645C6.85692 7.45645 6.67183 7.47202 6.5607 7.4943C6.5607 7.4943 6.22555 7.55931 6.08756 7.66742C6.08756 7.66742 6.0572 7.6861 6.07374 7.72844L6.18244 8.02038C6.19597 8.05823 6.23285 8.04529 6.23285 8.04529C6.23285 8.04529 6.24443 8.04071 6.25806 8.03264C6.5533 7.87207 6.92689 7.87684 6.92689 7.87684C7.09271 7.87684 7.22048 7.91041 7.30631 7.9761C7.3901 8.04042 7.43263 8.13725 7.43263 8.3419V8.40681C7.30096 8.38773 7.17971 8.37674 7.17971 8.37674ZM19.5614 7.58587C19.5636 7.58074 19.5647 7.57521 19.5648 7.56963C19.5648 7.56404 19.5637 7.5585 19.5616 7.55334C19.5594 7.54819 19.5562 7.54351 19.5522 7.53961C19.5482 7.5357 19.5435 7.53264 19.5383 7.5306C19.5121 7.52067 19.3816 7.49313 19.281 7.4869C19.088 7.47484 18.9811 7.50734 18.8851 7.55055C18.79 7.59346 18.6846 7.66285 18.6258 7.74196L18.6256 7.55473C18.6256 7.52904 18.6074 7.50831 18.5815 7.50831H18.188C18.1625 7.50831 18.144 7.52904 18.144 7.55473V9.84471C18.144 9.85706 18.1489 9.8689 18.1577 9.87764C18.1664 9.88638 18.1783 9.89129 18.1906 9.89132H18.594C18.6063 9.89129 18.6182 9.88637 18.6269 9.87763C18.6356 9.86889 18.6405 9.85705 18.6405 9.84471V8.70079C18.6405 8.54713 18.6574 8.39406 18.6912 8.29782C18.7245 8.20255 18.7697 8.12664 18.8258 8.07205C18.8789 8.01936 18.9439 7.98024 19.0153 7.958C19.0823 7.93878 19.1516 7.92902 19.2213 7.929C19.3015 7.929 19.3899 7.94963 19.3899 7.94963C19.4195 7.95294 19.4359 7.93484 19.446 7.90817C19.4723 7.83801 19.5471 7.62772 19.5614 7.58587Z" fill="var(--fill-0, #FFFFFE)"/>
<path id="Vector_4" fill-rule="evenodd" clip-rule="evenodd" d="M15.7753 6.52458C15.7255 6.50953 15.6748 6.49751 15.6236 6.48858C15.5546 6.47707 15.4848 6.47166 15.4149 6.47242C15.1373 6.47242 14.9185 6.55086 14.7648 6.70578C14.6122 6.85954 14.5084 7.09377 14.4563 7.40196L14.4375 7.50599H14.0891C14.0891 7.50599 14.0465 7.50424 14.0376 7.55065L13.9804 7.86984C13.9764 7.9004 13.9895 7.91947 14.0304 7.91928H14.3696L14.0254 9.84053C13.9985 9.99526 13.9676 10.1225 13.9334 10.219C13.8998 10.3142 13.8669 10.3855 13.8264 10.4373C13.7872 10.4874 13.75 10.5243 13.6859 10.5458C13.6329 10.5636 13.572 10.5717 13.5053 10.5717C13.4681 10.5717 13.4187 10.5655 13.3822 10.5582C13.3457 10.551 13.3267 10.5428 13.2994 10.5314C13.2994 10.5314 13.2596 10.5162 13.2439 10.5561C13.2311 10.5887 13.1407 10.8373 13.13 10.8681C13.1191 10.8984 13.1344 10.9224 13.1537 10.9293C13.1988 10.9454 13.2324 10.9557 13.2939 10.9702C13.3793 10.9904 13.4514 10.9917 13.5188 10.9917C13.6601 10.9917 13.7888 10.9718 13.8956 10.9333C14.003 10.8944 14.0965 10.8268 14.1793 10.7352C14.2687 10.6365 14.3249 10.533 14.3788 10.3919C14.432 10.2521 14.4773 10.0785 14.5136 9.87615L14.8595 7.91928H15.3651C15.3651 7.91928 15.4077 7.92083 15.4166 7.87461L15.4738 7.55542C15.4778 7.52487 15.4648 7.50579 15.4237 7.50599H14.933C14.9354 7.49489 14.9577 7.32226 15.014 7.15975C15.0381 7.09036 15.0833 7.03441 15.1216 6.99597C15.1574 6.95936 15.2015 6.93192 15.2502 6.91598C15.3035 6.89949 15.3591 6.89147 15.4149 6.89223C15.4612 6.89223 15.5065 6.89778 15.5411 6.90498C15.5886 6.9151 15.6071 6.92045 15.6196 6.92415C15.6696 6.93943 15.6763 6.92464 15.6862 6.90041L15.8035 6.57811C15.8156 6.54346 15.7862 6.52886 15.7753 6.52458ZM8.91724 9.84462C8.91724 9.87031 8.89894 9.89123 8.87325 9.89123H8.46619C8.4404 9.89123 8.42211 9.87031 8.42211 9.84462V6.56828C8.42211 6.54268 8.4404 6.52196 8.46619 6.52196H8.87325C8.89894 6.52196 8.91724 6.54268 8.91724 6.56828V9.84462Z" fill="var(--fill-0, #FFFFFE)"/>
</g>
</svg>
