<svg preserveAspectRatio="none" width="100%" height="100%" overflow="visible" style="display: block;" viewBox="0 0 18 14.8352" fill="none" xmlns="http://www.w3.org/2000/svg">
<g id="Google Meet.svg" clip-path="url(#clip0_0_50)">
<path id="Vector" d="M10.1829 7.41757L11.9376 9.4265L14.2972 10.9368L14.7086 7.42993L14.2972 4.00136L11.8924 5.32828L10.1829 7.41757Z" fill="var(--fill-0, #00832D)"/>
<path id="Vector_2" d="M4.57764e-05 10.6113V13.5989C4.57764e-05 14.2819 0.552389 14.8352 1.23433 14.8352H4.21719L4.83433 12.5769L4.21719 10.6113L2.17033 9.99312L4.57764e-05 10.6113Z" fill="var(--fill-0, #0066DA)"/>
<path id="Vector_3" d="M4.21714 0L0 4.2239L2.17029 4.84203L4.21714 4.2239L4.824 2.28503L4.21714 0Z" fill="var(--fill-0, #E94235)"/>
<path id="Vector_4" d="M4.21719 4.22389H4.57764e-05V10.6113H4.21719V4.22389Z" fill="var(--fill-0, #2684FC)"/>
<path id="Vector_5" d="M16.9921 1.78845L14.2972 4.00136V10.9368L17.0044 13.16C17.4097 13.4773 18.0021 13.1878 18.0021 12.6717V2.26647C18.0021 1.74415 17.3963 1.45775 16.9921 1.78845ZM10.1829 7.41757V10.6113H4.2172V14.8352H13.0629C13.7449 14.8352 14.2972 14.2819 14.2972 13.5989V10.9368L10.1829 7.41757Z" fill="var(--fill-0, #00AC47)"/>
<path id="Vector_6" d="M13.0629 -1.81213e-05H4.2172V4.22388H10.1829V7.41756L14.2972 4.00342V1.23625C14.2972 0.55321 13.7449 -1.81213e-05 13.0629 -1.81213e-05Z" fill="var(--fill-0, #FFBA00)"/>
</g>
<defs>
<clipPath id="clip0_0_50">
<rect width="18" height="14.8352" fill="white"/>
</clipPath>
</defs>
</svg>
